<svg xmlns="http://www.w3.org/2000/svg" xmlns:xlink="http://www.w3.org/1999/xlink" contentStyleType="text/css" height="275px" preserveAspectRatio="none" style="width:950px;height:275px;background:#FFFFFF;" version="1.1" viewBox="0 0 950 275" width="950px" zoomAndPan="magnify"><defs/><g><!--entity req_demo_00001--><g id="elem_req_demo_00001"><a href="../traceability/requirements.html#req_demo_00001" target="_top" title="../traceability/requirements.html#req_demo_00001" xlink:actuate="onRequest" xlink:href="../traceability/requirements.html#req_demo_00001" xlink:show="new" xlink:title="../traceability/requirements.html#req_demo_00001" xlink:type="simple"><polygon fill="#FF7F50" points="387.5,16,397.5,6,529.5,6,529.5,84.2031,519.5,94.2031,387.5,94.2031,387.5,16" style="stroke:#181818;stroke-width:0.5;"/><line style="stroke:#181818;stroke-width:0.5;" x1="519.5" x2="529.5" y1="16" y2="6"/><line style="stroke:#181818;stroke-width:0.5;" x1="387.5" x2="519.5" y1="16" y2="16"/><line style="stroke:#181818;stroke-width:0.5;" x1="519.5" x2="519.5" y1="16" y2="94.2031"/><text fill="#000000" font-family="sans-serif" font-size="12" lengthAdjust="spacing" textLength="80" x="402.5" y="37.1387">Requirement</text><text fill="#000000" font-family="sans-serif" font-size="14" font-weight="bold" lengthAdjust="spacing" textLength="70" x="402.5" y="52.9639">SVG Link</text><text fill="#000000" font-family="sans-serif" font-size="14" font-weight="bold" lengthAdjust="spacing" textLength="102" x="402.5" y="69.2607">Identification</text><text fill="#000000" font-family="sans-serif" font-size="10" lengthAdjust="spacing" textLength="84" x="402.5" y="81.8447">req_demo_00001</text></a></g><!--entity req_demo_00002--><g id="elem_req_demo_00002"><a href="../traceability/requirements.html#req_demo_00002" target="_top" title="../traceability/requirements.html#req_demo_00002" xlink:actuate="onRequest" xlink:href="../traceability/requirements.html#req_demo_00002" xlink:show="new" xlink:title="../traceability/requirements.html#req_demo_00002" xlink:type="simple"><polygon fill="#FF7F50" points="198,164,208,154,367,154,367,248.5,357,258.5,198,258.5,198,164" style="stroke:#181818;stroke-width:0.5;"/><line style="stroke:#181818;stroke-width:0.5;" x1="357" x2="367" y1="164" y2="154"/><line style="stroke:#181818;stroke-width:0.5;" x1="198" x2="357" y1="164" y2="164"/><line style="stroke:#181818;stroke-width:0.5;" x1="357" x2="357" y1="164" y2="258.5"/><text fill="#000000" font-family="sans-serif" font-size="12" lengthAdjust="spacing" textLength="80" x="213" y="185.1387">Requirement</text><text fill="#000000" font-family="sans-serif" font-size="14" font-weight="bold" lengthAdjust="spacing" textLength="129" x="213" y="200.9639">Standard Sphinx</text><text fill="#000000" font-family="sans-serif" font-size="14" font-weight="bold" lengthAdjust="spacing" textLength="82" x="213" y="217.2607">Reference</text><text fill="#000000" font-family="sans-serif" font-size="14" font-weight="bold" lengthAdjust="spacing" textLength="83" x="213" y="233.5576">Resolution</text><text fill="#000000" font-family="sans-serif" font-size="10" lengthAdjust="spacing" textLength="84" x="213" y="246.1416">req_demo_00002</text></a></g><!--entity req_demo_00003--><g id="elem_req_demo_00003"><a href="../traceability/requirements.html#req_demo_00003" target="_top" title="../traceability/requirements.html#req_demo_00003" xlink:actuate="onRequest" xlink:href="../traceability/requirements.html#req_demo_00003" xlink:show="new" xlink:title="../traceability/requirements.html#req_demo_00003" xlink:type="simple"><polygon fill="#FF7F50" points="402,164,412,154,551,154,551,248.5,541,258.5,402,258.5,402,164" style="stroke:#181818;stroke-width:0.5;"/><line style="stroke:#181818;stroke-width:0.5;" x1="541" x2="551" y1="164" y2="154"/><line style="stroke:#181818;stroke-width:0.5;" x1="402" x2="541" y1="164" y2="164"/><line style="stroke:#181818;stroke-width:0.5;" x1="541" x2="541" y1="164" y2="258.5"/><text fill="#000000" font-family="sans-serif" font-size="12" lengthAdjust="spacing" textLength="80" x="417" y="185.1387">Requirement</text><text fill="#000000" font-family="sans-serif" font-size="14" font-weight="bold" lengthAdjust="spacing" textLength="109" x="417" y="200.9639">Sphinx-Needs</text><text fill="#000000" font-family="sans-serif" font-size="14" font-weight="bold" lengthAdjust="spacing" textLength="82" x="417" y="217.2607">Reference</text><text fill="#000000" font-family="sans-serif" font-size="14" font-weight="bold" lengthAdjust="spacing" textLength="83" x="417" y="233.5576">Resolution</text><text fill="#000000" font-family="sans-serif" font-size="10" lengthAdjust="spacing" textLength="84" x="417" y="246.1416">req_demo_00003</text></a></g><!--entity req_demo_00004--><g id="elem_req_demo_00004"><a href="../traceability/requirements.html#req_demo_00004" target="_top" title="../traceability/requirements.html#req_demo_00004" xlink:actuate="onRequest" xlink:href="../traceability/requirements.html#req_demo_00004" xlink:show="new" xlink:title="../traceability/requirements.html#req_demo_00004" xlink:type="simple"><polygon fill="#FF7F50" points="22,16,32,6,157,6,157,84.2031,147,94.2031,22,94.2031,22,16" style="stroke:#181818;stroke-width:0.5;"/><line style="stroke:#181818;stroke-width:0.5;" x1="147" x2="157" y1="16" y2="6"/><line style="stroke:#181818;stroke-width:0.5;" x1="22" x2="147" y1="16" y2="16"/><line style="stroke:#181818;stroke-width:0.5;" x1="147" x2="147" y1="16" y2="94.2031"/><text fill="#000000" font-family="sans-serif" font-size="12" lengthAdjust="spacing" textLength="80" x="37" y="37.1387">Requirement</text><text fill="#000000" font-family="sans-serif" font-size="14" font-weight="bold" lengthAdjust="spacing" textLength="65" x="37" y="52.9639">SVG File</text><text fill="#000000" font-family="sans-serif" font-size="14" font-weight="bold" lengthAdjust="spacing" textLength="95" x="37" y="69.2607">Modification</text><text fill="#000000" font-family="sans-serif" font-size="10" lengthAdjust="spacing" textLength="84" x="37" y="81.8447">req_demo_00004</text></a></g><!--entity req_demo_00005--><g id="elem_req_demo_00005"><a href="../traceability/requirements.html#req_demo_00005" target="_top" title="../traceability/requirements.html#req_demo_00005" xlink:actuate="onRequest" xlink:href="../traceability/requirements.html#req_demo_00005" xlink:show="new" xlink:title="../traceability/requirements.html#req_demo_00005" xlink:type="simple"><polygon fill="#FF7F50" points="192,16,202,6,333,6,333,84.2031,323,94.2031,192,94.2031,192,16" style="stroke:#181818;stroke-width:0.5;"/><line style="stroke:#181818;stroke-width:0.5;" x1="323" x2="333" y1="16" y2="6"/><line style="stroke:#181818;stroke-width:0.5;" x1="192" x2="323" y1="16" y2="16"/><line style="stroke:#181818;stroke-width:0.5;" x1="323" x2="323" y1="16" y2="94.2031"/><text fill="#000000" font-family="sans-serif" font-size="12" lengthAdjust="spacing" textLength="80" x="207" y="37.1387">Requirement</text><text fill="#000000" font-family="sans-serif" font-size="14" font-weight="bold" lengthAdjust="spacing" textLength="92" x="207" y="52.9639">SVG Output</text><text fill="#000000" font-family="sans-serif" font-size="14" font-weight="bold" lengthAdjust="spacing" textLength="101" x="207" y="69.2607">Preservation</text><text fill="#000000" font-family="sans-serif" font-size="10" lengthAdjust="spacing" textLength="84" x="207" y="81.8447">req_demo_00005</text></a></g><!--entity req_demo_00006--><g id="elem_req_demo_00006"><a href="../traceability/requirements.html#req_demo_00006" target="_top" title="../traceability/requirements.html#req_demo_00006" xlink:actuate="onRequest" xlink:href="../traceability/requirements.html#req_demo_00006" xlink:show="new" xlink:title="../traceability/requirements.html#req_demo_00006" xlink:type="simple"><polygon fill="#FF7F50" points="16,172.5,26,162.5,163,162.5,163,240.7031,153,250.7031,16,250.7031,16,172.5" style="stroke:#181818;stroke-width:0.5;"/><line style="stroke:#181818;stroke-width:0.5;" x1="153" x2="163" y1="172.5" y2="162.5"/><line style="stroke:#181818;stroke-width:0.5;" x1="16" x2="153" y1="172.5" y2="172.5"/><line style="stroke:#181818;stroke-width:0.5;" x1="153" x2="153" y1="172.5" y2="250.7031"/><text fill="#000000" font-family="sans-serif" font-size="12" lengthAdjust="spacing" textLength="80" x="31" y="193.6387">Requirement</text><text fill="#000000" font-family="sans-serif" font-size="14" font-weight="bold" lengthAdjust="spacing" textLength="107" x="31" y="209.4639">Build Process</text><text fill="#000000" font-family="sans-serif" font-size="14" font-weight="bold" lengthAdjust="spacing" textLength="101" x="31" y="225.7607">Compatibility</text><text fill="#000000" font-family="sans-serif" font-size="10" lengthAdjust="spacing" textLength="84" x="31" y="238.3447">req_demo_00006</text></a></g><!--entity req_demo_00007--><g id="elem_req_demo_00007"><a href="../traceability/requirements.html#req_demo_00007" target="_top" title="../traceability/requirements.html#req_demo_00007" xlink:actuate="onRequest" xlink:href="../traceability/requirements.html#req_demo_00007" xlink:show="new" xlink:title="../traceability/requirements.html#req_demo_00007" xlink:type="simple"><polygon fill="#FF7F50" points="589.5,16,599.5,6,731.5,6,731.5,84.2031,721.5,94.2031,589.5,94.2031,589.5,16" style="stroke:#181818;stroke-width:0.5;"/><line style="stroke:#181818;stroke-width:0.5;" x1="721.5" x2="731.5" y1="16" y2="6"/><line style="stroke:#181818;stroke-width:0.5;" x1="589.5" x2="721.5" y1="16" y2="16"/><line style="stroke:#181818;stroke-width:0.5;" x1="721.5" x2="721.5" y1="16" y2="94.2031"/><text fill="#000000" font-family="sans-serif" font-size="12" lengthAdjust="spacing" textLength="80" x="604.5" y="37.1387">Requirement</text><text fill="#000000" font-family="sans-serif" font-size="14" font-weight="bold" lengthAdjust="spacing" textLength="102" x="604.5" y="52.9639">Performance</text><text fill="#000000" font-family="sans-serif" font-size="14" font-weight="bold" lengthAdjust="spacing" textLength="76" x="604.5" y="69.2607">Efficiency</text><text fill="#000000" font-family="sans-serif" font-size="10" lengthAdjust="spacing" textLength="84" x="604.5" y="81.8447">req_demo_00007</text></a></g><!--entity req_demo_00008--><g id="elem_req_demo_00008"><a href="../traceability/requirements.html#req_demo_00008" target="_top" title="../traceability/requirements.html#req_demo_00008" xlink:actuate="onRequest" xlink:href="../traceability/requirements.html#req_demo_00008" xlink:show="new" xlink:title="../traceability/requirements.html#req_demo_00008" xlink:type="simple"><polygon fill="#FF7F50" points="586.5,172.5,596.5,162.5,734.5,162.5,734.5,240.7031,724.5,250.7031,586.5,250.7031,586.5,172.5" style="stroke:#181818;stroke-width:0.5;"/><line style="stroke:#181818;stroke-width:0.5;" x1="724.5" x2="734.5" y1="172.5" y2="162.5"/><line style="stroke:#181818;stroke-width:0.5;" x1="586.5" x2="724.5" y1="172.5" y2="172.5"/><line style="stroke:#181818;stroke-width:0.5;" x1="724.5" x2="724.5" y1="172.5" y2="250.7031"/><text fill="#000000" font-family="sans-serif" font-size="12" lengthAdjust="spacing" textLength="80" x="601.5" y="193.6387">Requirement</text><text fill="#000000" font-family="sans-serif" font-size="14" font-weight="bold" lengthAdjust="spacing" textLength="106" x="601.5" y="209.4639">Scalability for</text><text fill="#000000" font-family="sans-serif" font-size="14" font-weight="bold" lengthAdjust="spacing" textLength="108" x="601.5" y="225.7607">Multiple SVGs</text><text fill="#000000" font-family="sans-serif" font-size="10" lengthAdjust="spacing" textLength="84" x="601.5" y="238.3447">req_demo_00008</text></a></g><!--entity req_demo_00009--><g id="elem_req_demo_00009"><a href="../traceability/requirements.html#req_demo_00009" target="_top" title="../traceability/requirements.html#req_demo_00009" xlink:actuate="onRequest" xlink:href="../traceability/requirements.html#req_demo_00009" xlink:show="new" xlink:title="../traceability/requirements.html#req_demo_00009" xlink:type="simple"><polygon fill="#FF7F50" points="787,16,797,6,916,6,916,84.2031,906,94.2031,787,94.2031,787,16" style="stroke:#181818;stroke-width:0.5;"/><line style="stroke:#181818;stroke-width:0.5;" x1="906" x2="916" y1="16" y2="6"/><line style="stroke:#181818;stroke-width:0.5;" x1="787" x2="906" y1="16" y2="16"/><line style="stroke:#181818;stroke-width:0.5;" x1="906" x2="906" y1="16" y2="94.2031"/><text fill="#000000" font-family="sans-serif" font-size="12" lengthAdjust="spacing" textLength="80" x="802" y="37.1387">Requirement</text><text fill="#000000" font-family="sans-serif" font-size="14" font-weight="bold" lengthAdjust="spacing" textLength="89" x="802" y="52.9639">Informative</text><text fill="#000000" font-family="sans-serif" font-size="14" font-weight="bold" lengthAdjust="spacing" textLength="63" x="802" y="69.2607">Logging</text><text fill="#000000" font-family="sans-serif" font-size="10" lengthAdjust="spacing" textLength="84" x="802" y="81.8447">req_demo_00009</text></a></g><!--entity req_demo_00010--><g id="elem_req_demo_00010"><a href="../traceability/requirements.html#req_demo_00010" target="_top" title="../traceability/requirements.html#req_demo_00010" xlink:actuate="onRequest" xlink:href="../traceability/requirements.html#req_demo_00010" xlink:show="new" xlink:title="../traceability/requirements.html#req_demo_00010" xlink:type="simple"><polygon fill="#FF7F50" points="770,172.5,780,162.5,933,162.5,933,240.7031,923,250.7031,770,250.7031,770,172.5" style="stroke:#181818;stroke-width:0.5;"/><line style="stroke:#181818;stroke-width:0.5;" x1="923" x2="933" y1="172.5" y2="162.5"/><line style="stroke:#181818;stroke-width:0.5;" x1="770" x2="923" y1="172.5" y2="172.5"/><line style="stroke:#181818;stroke-width:0.5;" x1="923" x2="923" y1="172.5" y2="250.7031"/><text fill="#000000" font-family="sans-serif" font-size="12" lengthAdjust="spacing" textLength="80" x="785" y="193.6387">Requirement</text><text fill="#000000" font-family="sans-serif" font-size="14" font-weight="bold" lengthAdjust="spacing" textLength="101" x="785" y="209.4639">Configurable</text><text fill="#000000" font-family="sans-serif" font-size="14" font-weight="bold" lengthAdjust="spacing" textLength="123" x="785" y="225.7607">Verbosity Level</text><text fill="#000000" font-family="sans-serif" font-size="10" lengthAdjust="spacing" textLength="84" x="785" y="238.3447">req_demo_00010</text></a></g><!--link req_demo_00001 to req_demo_00002--><g id="link_req_demo_00001_req_demo_00002"><path d="M409.47,94.04 C388.32,112.61 367.9097,130.5323 345.7697,149.9623 " fill="none" id="req_demo_00001-to-req_demo_00002" style="stroke:#181818;stroke-width:1.0;"/><polygon fill="#181818" points="341.26,153.92,350.6629,150.9899,345.018,150.622,345.386,144.9771,341.26,153.92" style="stroke:#181818;stroke-width:1.0;"/></g><!--link req_demo_00001 to req_demo_00003--><g id="link_req_demo_00001_req_demo_00003"><path d="M463.51,94.04 C465.68,112.61 467.5368,128.5302 469.7968,147.9602 " fill="none" id="req_demo_00001-to-req_demo_00003" style="stroke:#181818;stroke-width:1.0;"/><polygon fill="#181818" points="470.49,153.92,473.4234,144.5181,469.9123,148.9535,465.477,145.4424,470.49,153.92" style="stroke:#181818;stroke-width:1.0;"/></g><!--link req_demo_00007 to req_demo_00008--><g id="link_req_demo_00007_req_demo_00008"><path d="M660.5,94.04 C660.5,115.38 660.5,135.08 660.5,156.43 " fill="none" id="req_demo_00007-to-req_demo_00008" style="stroke:#181818;stroke-width:1.0;"/><polygon fill="#181818" points="660.5,162.43,664.5,153.43,660.5,157.43,656.5,153.43,660.5,162.43" style="stroke:#181818;stroke-width:1.0;"/></g><!--link req_demo_00009 to req_demo_00010--><g id="link_req_demo_00009_req_demo_00010"><path d="M851.5,94.04 C851.5,115.38 851.5,135.08 851.5,156.43 " fill="none" id="req_demo_00009-to-req_demo_00010" style="stroke:#181818;stroke-width:1.0;"/><polygon fill="#181818" points="851.5,162.43,855.5,153.43,851.5,157.43,847.5,153.43,851.5,162.43" style="stroke:#181818;stroke-width:1.0;"/></g><!--SRC=[dTLTJy8m50RW-_sAHYvCI82DRmpXGgB619LWmeqIKzOpEB5hiUs8-kljO6gOgLfsru-rp-dUhAVaLZBGX4620WrAGO90s2voCjJu3cTHSpI3bmmLf23Ci95tZXv5jNe_lo8J5C_LQjwwPdOK4unflaRULxmUZXIyF358vLDedwXOuOHGJGv7oCD3lTumYiP0byZHl3NKzywwlZOfhno-ibYGobWgolz9DbGmgXYvtwnHlExbCqX0WOZXiwabptulekaiekbVHDEtY9szTWl0zD4Lj9mLjFmhQFbMO9DpYRpWtaZsZzoqdU2sFxXz1FWkCvlCxCbJ1HhKzWzonqdk-9CxdkJp33aZKoLZq4LCnZBTMF9-FpUxwsHt_TbTJ_OKL29LIh_2V97ORA0Dzo_YdbFSynVtVBCHKruiJIozo7J63Muu49iSxORtdV2-Fxpl2RyMkvCsk2sEUY9NAnGhDtVWv0xykGDFxbYA15UPeilF7ySSr5Bg_Dmdi0NkT4UXons5tkue_7O7fyIg1CIxQ_FW1YtTRBNQg7HF_3cZ5PII_6D6FoXzW_ACA0m-0000]--></g></svg>