<svg xmlns="http://www.w3.org/2000/svg" xmlns:xlink="http://www.w3.org/1999/xlink" contentStyleType="text/css" height="244px" preserveAspectRatio="none" style="width:1031px;height:244px;background:#FFFFFF;" version="1.1" viewBox="0 0 1031 244" width="1031px" zoomAndPan="magnify"><defs/><g><!--entity User--><g id="elem_User"><ellipse cx="22" cy="86.0659" fill="#F1F1F1" rx="8" ry="8" style="stroke:#181818;stroke-width:0.5;"/><path d="M22,94.0659 L22,121.0659 M9,102.0659 L35,102.0659 M22,121.0659 L9,136.0659 M22,121.0659 L35,136.0659 " fill="none" style="stroke:#181818;stroke-width:0.5;"/><text fill="#000000" font-family="sans-serif" font-size="14" lengthAdjust="spacing" textLength="32" x="6" y="150.561">User</text></g><!--entity Sphinx--><g id="elem_Sphinx"><path d="M350.5,95.5659 L350.5,119.5659 M350.5,107.5659 L367.5,107.5659 " fill="none" style="stroke:#181818;stroke-width:0.5;"/><ellipse cx="379.5" cy="107.5659" fill="#F1F1F1" rx="12" ry="12" style="stroke:#181818;stroke-width:0.5;"/><text fill="#000000" font-family="sans-serif" font-size="14" lengthAdjust="spacing" textLength="84" x="329" y="136.561">Sphinx Build</text></g><!--entity DC--><g id="elem_DC"><ellipse cx="702" cy="107.5659" fill="#F1F1F1" rx="12" ry="12" style="stroke:#181818;stroke-width:0.5;"/><polygon fill="#181818" points="698,95.5659,704,90.5659,702,95.5659,704,100.5659,698,95.5659" style="stroke:#181818;stroke-width:1.0;"/><text fill="#000000" font-family="sans-serif" font-size="14" lengthAdjust="spacing" textLength="116" x="644" y="136.561">DiagramConnect</text></g><!--entity SVG--><g id="elem_SVG"><ellipse cx="985.5" cy="22.5659" fill="#F1F1F1" rx="12" ry="12" style="stroke:#181818;stroke-width:0.5;"/><line style="stroke:#181818;stroke-width:0.5;" x1="973.5" x2="997.5" y1="36.5659" y2="36.5659"/><text fill="#000000" font-family="sans-serif" font-size="14" lengthAdjust="spacing" textLength="56" x="957.5" y="51.561">SVG File</text></g><!--entity NJ--><g id="elem_NJ"><ellipse cx="985.5" cy="164.5659" fill="#F1F1F1" rx="12" ry="12" style="stroke:#181818;stroke-width:0.5;"/><line style="stroke:#181818;stroke-width:0.5;" x1="973.5" x2="997.5" y1="178.5659" y2="178.5659"/><text fill="#000000" font-family="sans-serif" font-size="14" lengthAdjust="spacing" textLength="77" x="947" y="193.561">needs.json</text></g><!--link User to Sphinx--><g id="link_User_Sphinx"><path d="M38.36,115.5659 C88.99,115.5659 245.77,115.5659 322.83,115.5659 " fill="none" id="User-to-Sphinx" style="stroke:#181818;stroke-width:1.0;"/><polygon fill="#181818" points="328.83,115.5659,319.83,111.5659,323.83,115.5659,319.83,119.5659,328.83,115.5659" style="stroke:#181818;stroke-width:1.0;"/><text fill="#000000" font-family="sans-serif" font-size="13" lengthAdjust="spacing" textLength="229" x="69" y="111.6328">Build Docs (needs_build_json=True)</text></g><!--link Sphinx to User--><g id="link_Sphinx_User"><path d="M328.95,132.6559 C319.29,135.9359 308.92,138.8759 299,140.5659 C197.8,157.8659 167.38,166.3259 68,140.5659 C57.45,137.8359 51.7822,135.2625 43.4622,129.9325 " fill="none" id="Sphinx-to-User" style="stroke:#181818;stroke-width:1.0;"/><polygon fill="#181818" points="38.41,126.6959,43.8306,134.9189,42.6202,129.3931,48.146,128.1826,38.41,126.6959" style="stroke:#181818;stroke-width:1.0;"/><text fill="#000000" font-family="sans-serif" font-size="13" lengthAdjust="spacing" textLength="122" x="122.5" y="136.6328">Provide HTML Docs</text></g><!--link Sphinx to DC--><g id="link_Sphinx_DC"><path d="M413,115.5659 C471.22,115.5659 572.09,115.5659 637.99,115.5659 " fill="none" id="Sphinx-to-DC" style="stroke:#181818;stroke-width:1.0;"/><polygon fill="#181818" points="643.99,115.5659,634.99,111.5659,638.99,115.5659,634.99,119.5659,643.99,115.5659" style="stroke:#181818;stroke-width:1.0;"/><text fill="#000000" font-family="sans-serif" font-size="13" lengthAdjust="spacing" textLength="169" x="444" y="111.6328">Trigger resolve_references</text></g><!--link DC to Sphinx--><g id="link_DC_Sphinx"><path d="M643.93,134.4159 C634.05,136.9759 623.8,139.1859 614,140.5659 C538.74,151.1659 517.91,153.3759 443,140.5659 C433.08,138.8759 428.3914,137.865 418.7314,134.585 " fill="none" id="DC-to-Sphinx" style="stroke:#181818;stroke-width:1.0;"/><polygon fill="#181818" points="413.05,132.6559,420.2861,139.3372,417.7845,134.2635,422.8582,131.7619,413.05,132.6559" style="stroke:#181818;stroke-width:1.0;"/><text fill="#000000" font-family="sans-serif" font-size="13" lengthAdjust="spacing" textLength="84" x="486.5" y="136.6328">Build finished</text></g><!--link DC to NJ--><g id="link_DC_NJ"><path d="M760.02,124.6759 C803.28,131.9059 864.12,142.7159 917,154.5659 C926.7,156.7459 931.3213,157.8348 940.9913,160.4048 " fill="none" id="DC-to-NJ" style="stroke:#181818;stroke-width:1.0;"/><polygon fill="#181818" points="946.79,161.9459,939.1194,155.7684,941.9577,160.6616,937.0645,163.5,946.79,161.9459" style="stroke:#181818;stroke-width:1.0;"/><text fill="#000000" font-family="sans-serif" font-size="13" lengthAdjust="spacing" textLength="104" x="801.5" y="126.6328">Load needs.json</text></g><!--link DC to NJ--><g id="link_DC_NJ"><path d="M726.82,139.6559 C743.07,154.3059 765.95,171.6759 790,179.5659 C842.33,196.7459 900.9793,190.346 940.9693,182.606 " fill="none" id="DC-to-NJ-1" style="stroke:#181818;stroke-width:1.0;"/><polygon fill="#181818" points="946.86,181.4659,937.2639,179.249,941.9511,182.416,938.7841,187.1032,946.86,181.4659" style="stroke:#181818;stroke-width:1.0;"/><text fill="#000000" font-family="sans-serif" font-size="13" lengthAdjust="spacing" textLength="93" x="807" y="175.6328">Resolve :need:</text></g><!--link NJ to DC--><g id="link_NJ_DC"><path d="M953.96,196.5759 C942.95,203.8259 930.01,210.8559 917,214.5659 C862.73,230.0759 841.43,237.8359 790,214.5659 C756.23,199.2859 733.4457,168.8516 719.0057,144.7716 " fill="none" id="NJ-to-DC" style="stroke:#181818;stroke-width:1.0;"/><polygon fill="#181818" points="715.92,139.6259,717.1181,149.4016,718.4914,143.914,723.9791,145.2873,715.92,139.6259" style="stroke:#181818;stroke-width:1.0;"/><text fill="#000000" font-family="sans-serif" font-size="13" lengthAdjust="spacing" textLength="125" x="791" y="210.6328">Return resolved URI</text></g><!--link DC to SVG--><g id="link_DC_SVG"><path d="M722.75,91.5659 C738.82,73.9659 763.16,51.3359 790,40.5659 C846.02,18.1059 912.5197,21.4167 951.2597,25.8967 " fill="none" id="DC-to-SVG" style="stroke:#181818;stroke-width:1.0;"/><polygon fill="#181818" points="957.22,26.5859,948.7391,21.5785,952.2531,26.0115,947.8201,29.5255,957.22,26.5859" style="stroke:#181818;stroke-width:1.0;"/><text fill="#000000" font-family="sans-serif" font-size="13" lengthAdjust="spacing" textLength="93" x="807" y="19.6328">Read SVG files</text></g><!--link DC to SVG--><g id="link_DC_SVG"><path d="M760.45,106.1659 C804.2,98.0559 865.46,84.6159 917,65.5659 C930.74,60.4959 939.9978,56.1185 952.0278,49.5285 " fill="none" id="DC-to-SVG-1" style="stroke:#181818;stroke-width:1.0;"/><polygon fill="#181818" points="957.29,46.6459,947.475,47.4617,952.9048,49.0481,951.3185,54.478,957.29,46.6459" style="stroke:#181818;stroke-width:1.0;"/><text fill="#000000" font-family="sans-serif" font-size="13" lengthAdjust="spacing" textLength="121" x="793" y="61.6328">Write updated SVG</text></g><!--SRC=[LP31JiCm44Jl_efLJd0e7n093YIYK9KAXRGS8pVU98l2kbex5VmzTj86ShDsvitikiV6WxSWr7OU30dMdYmhNNihi7SewcW7Dbf-87a_TSJVy3XGRnBG3gQ1gYrxiJqaEUbMz5TccKFEQCapXUp9H_omXYVgSK8FwrbWHEFkFftbKTfjb8hDi5ezN2eWdLeXjxM3cn6eZd5IHUo-b05lrSKRiJmBI1ckQaEEeBFz6Il11WMvHgU27csxJR1jhJRmjyDLY-kcK60GuxC9co-vOeg5DBAf2hEvkK0_25-B3UoBbsNiXv1764v6UnppPtbvRqDChaFp_xRnRr9u4ticW_1Slcx7V_a5]--></g></svg>