<svg xmlns="http://www.w3.org/2000/svg" xmlns:xlink="http://www.w3.org/1999/xlink" contentStyleType="text/css" data-diagram-type="DESCRIPTION" height="282px" preserveAspectRatio="none" style="width:895px;height:282px;background:#FFFFFF;" version="1.1" viewBox="0 0 895 282" width="895.8px" zoomAndPan="magnify"><title>Sphinx-Diagram-Connect Component Diagram</title><defs/><g><g class="title" data-source-line="2"><text fill="#000000" font-family="sans-serif" font-size="8.4" font-weight="bold" lengthAdjust="spacing" textLength="218.0678" x="334.7458" y="13.7971">Sphinx-Diagram-Connect Component Diagram</text></g><!--cluster Sphinx Documentation Build--><g class="cluster" data-entity="Sphinx Documentation Build" data-source-line="40" data-uid="ent0002" id="cluster_Sphinx Documentation Build"><path d="M155.214,25.9781 L290.5995,25.9781 A2.25,2.25 0 0 1 292.0995,27.4781 L296.2995,39.3562 L563.814,39.3562 A1.5,1.5 0 0 1 565.314,40.8562 L565.314,82.6781 A1.5,1.5 0 0 1 563.814,84.1781 L155.214,84.1781 A1.5,1.5 0 0 1 153.714,82.6781 L153.714,27.4781 A1.5,1.5 0 0 1 155.214,25.9781" fill="#FFFFE0" style="stroke:#CCAA66;stroke-width:0.9;"/><line style="stroke:#CCAA66;stroke-width:0.9;" x1="153.714" x2="296.2995" y1="39.3562" y2="39.3562"/><text fill="#000000" font-family="sans-serif" font-size="8.4" font-weight="bold" lengthAdjust="spacing" textLength="134.7855" x="156.114" y="34.9752">Sphinx Documentation Build</text></g><!--cluster Sphinx-Diagram-Connect Extension--><g class="cluster" data-entity="Sphinx-Diagram-Connect Extension" data-source-line="46" data-uid="ent0006" id="cluster_Sphinx-Diagram-Connect Extension"><path d="M183.414,113.5781 L351.3947,113.5781 A2.25,2.25 0 0 1 352.8947,115.0781 L357.0947,126.9563 L478.614,126.9563 A1.5,1.5 0 0 1 480.114,128.4562 L480.114,268.0781 A1.5,1.5 0 0 1 478.614,269.5781 L183.414,269.5781 A1.5,1.5 0 0 1 181.914,268.0781 L181.914,115.0781 A1.5,1.5 0 0 1 183.414,113.5781" fill="#FFFFE0" style="stroke:#CCAA66;stroke-width:0.9;"/><line style="stroke:#CCAA66;stroke-width:0.9;" x1="181.914" x2="357.0947" y1="126.9563" y2="126.9563"/><text fill="#000000" font-family="sans-serif" font-size="8.4" font-weight="bold" lengthAdjust="spacing" textLength="167.3807" x="184.314" y="122.5752">Sphinx-Diagram-Connect Extension</text></g><!--cluster Sphinx Output Directory--><g class="cluster" data-entity="Sphinx Output Directory" data-source-line="52" data-uid="ent0010" id="cluster_Sphinx Output Directory"><path d="M527.514,205.9781 C527.514,199.9781 605.214,199.9781 605.214,199.9781 C605.214,199.9781 682.914,199.9781 682.914,205.9781 L682.914,265.9781 C682.914,271.9781 605.214,271.9781 605.214,271.9781 C605.214,271.9781 527.514,271.9781 527.514,265.9781 L527.514,205.9781" fill="#90EE90" style="stroke:#006600;stroke-width:0.6;"/><path d="M527.514,205.9781 C527.514,211.9781 605.214,211.9781 605.214,211.9781 C605.214,211.9781 682.914,211.9781 682.914,205.9781" fill="none" style="stroke:#006600;stroke-width:0.6;"/><text fill="#000000" font-family="sans-serif" font-size="8.4" font-weight="bold" lengthAdjust="spacing" textLength="115.3893" x="547.5194" y="220.9752">Sphinx Output Directory</text></g><!--entity SphinxApp--><g class="entity" data-entity="SphinxApp" data-source-line="41" data-uid="ent0003" id="entity_SphinxApp"><rect fill="#ADD8E6" height="27.7781" rx="1.5" ry="1.5" style="stroke:#336699;stroke-width:0.3;" width="102.2209" x="315.114" y="46.9781"/><rect fill="#ADD8E6" height="6" style="stroke:#336699;stroke-width:0.3;" width="9" x="405.3349" y="49.9781"/><rect fill="#ADD8E6" height="1.2" style="stroke:#336699;stroke-width:0.3;" width="2.4" x="404.1349" y="51.1781"/><rect fill="#ADD8E6" height="1.2" style="stroke:#336699;stroke-width:0.3;" width="2.4" x="404.1349" y="53.5781"/><text fill="#000000" font-family="sans-serif" font-size="8.4" lengthAdjust="spacing" textLength="78.2209" x="324.114" y="66.7752">Sphinx Application</text></g><!--entity SphinxBuilder--><g class="entity" data-entity="SphinxBuilder" data-source-line="42" data-uid="ent0004" id="entity_SphinxBuilder"><rect fill="#ADD8E6" height="27.7781" rx="1.5" ry="1.5" style="stroke:#336699;stroke-width:0.3;" width="117.5936" x="438.114" y="46.9781"/><rect fill="#ADD8E6" height="6" style="stroke:#336699;stroke-width:0.3;" width="9" x="543.7076" y="49.9781"/><rect fill="#ADD8E6" height="1.2" style="stroke:#336699;stroke-width:0.3;" width="2.4" x="542.5076" y="51.1781"/><rect fill="#ADD8E6" height="1.2" style="stroke:#336699;stroke-width:0.3;" width="2.4" x="542.5076" y="53.5781"/><text fill="#000000" font-family="sans-serif" font-size="8.4" lengthAdjust="spacing" textLength="93.5936" x="447.114" y="66.7752">Sphinx Builder (HTML)</text></g><!--entity Config--><g class="entity" data-entity="Config" data-source-line="43" data-uid="ent0005" id="entity_Config"><rect fill="#F5F5F5" height="27.7781" rx="1.5" ry="1.5" style="stroke:#336699;stroke-width:0.3;" width="55.0119" x="163.314" y="46.9781"/><rect fill="#F5F5F5" height="6" style="stroke:#336699;stroke-width:0.3;" width="9" x="206.3259" y="49.9781"/><rect fill="#F5F5F5" height="1.2" style="stroke:#336699;stroke-width:0.3;" width="2.4" x="205.1259" y="51.1781"/><rect fill="#F5F5F5" height="1.2" style="stroke:#336699;stroke-width:0.3;" width="2.4" x="205.1259" y="53.5781"/><text fill="#000000" font-family="sans-serif" font-size="8.4" lengthAdjust="spacing" textLength="31.0119" x="172.314" y="66.7752">conf.py</text></g><!--entity DCClass--><g class="entity" data-entity="DCClass" data-source-line="47" data-uid="ent0007" id="entity_DCClass"><rect fill="#ADD8E6" height="27.7781" rx="1.5" ry="1.5" style="stroke:#336699;stroke-width:0.3;" width="119.5664" x="191.814" y="134.5781"/><rect fill="#ADD8E6" height="6" style="stroke:#336699;stroke-width:0.3;" width="9" x="299.3804" y="137.5781"/><rect fill="#ADD8E6" height="1.2" style="stroke:#336699;stroke-width:0.3;" width="2.4" x="298.1804" y="138.7781"/><rect fill="#ADD8E6" height="1.2" style="stroke:#336699;stroke-width:0.3;" width="2.4" x="298.1804" y="141.1781"/><text fill="#000000" font-family="sans-serif" font-size="8.4" lengthAdjust="spacing" textLength="95.5664" x="200.814" y="154.3752">DiagramConnect Class</text></g><!--entity ResolveRefs--><g class="entity" data-entity="ResolveRefs" data-source-line="48" data-uid="ent0008" id="entity_ResolveRefs"><rect fill="#ADD8E6" height="27.7781" rx="1.5" ry="1.5" style="stroke:#336699;stroke-width:0.3;" width="137.8389" x="332.514" y="134.5781"/><rect fill="#ADD8E6" height="6" style="stroke:#336699;stroke-width:0.3;" width="9" x="458.3529" y="137.5781"/><rect fill="#ADD8E6" height="1.2" style="stroke:#336699;stroke-width:0.3;" width="2.4" x="457.1529" y="138.7781"/><rect fill="#ADD8E6" height="1.2" style="stroke:#336699;stroke-width:0.3;" width="2.4" x="457.1529" y="141.1781"/><text fill="#000000" font-family="sans-serif" font-size="8.4" lengthAdjust="spacing" textLength="113.8389" x="341.514" y="154.3752">resolve_references Method</text></g><!--entity NeedsList--><g class="entity" data-entity="NeedsList" data-source-line="49" data-uid="ent0009" id="entity_NeedsList"><rect fill="#ADD8E6" height="27.7781" rx="1.5" ry="1.5" style="stroke:#336699;stroke-width:0.3;" width="177.4682" x="191.514" y="232.3781"/><rect fill="#ADD8E6" height="6" style="stroke:#336699;stroke-width:0.3;" width="9" x="356.9822" y="235.3781"/><rect fill="#ADD8E6" height="1.2" style="stroke:#336699;stroke-width:0.3;" width="2.4" x="355.7822" y="236.5781"/><rect fill="#ADD8E6" height="1.2" style="stroke:#336699;stroke-width:0.3;" width="2.4" x="355.7822" y="238.9781"/><text fill="#000000" font-family="sans-serif" font-size="8.4" lengthAdjust="spacing" textLength="153.4682" x="200.514" y="252.1752">NeedsList Class (from sphinx-needs)</text></g><!--entity SVGs--><g class="entity" data-entity="SVGs" data-source-line="53" data-uid="ent0011" id="entity_SVGs"><path d="M538.614,229.9781 L563.214,229.9781 A2.25,2.25 0 0 1 564.714,231.4781 L568.914,242.5781 L592.9152,242.5781 A1.5,1.5 0 0 1 594.4152,244.0781 L594.4152,261.0563 A1.5,1.5 0 0 1 592.9152,262.5563 L538.614,262.5563 A1.5,1.5 0 0 1 537.114,261.0563 L537.114,231.4781 A1.5,1.5 0 0 1 538.614,229.9781" fill="#B0E0E6" style="stroke:#4682B4;stroke-width:0.3;"/><line style="stroke:#4682B4;stroke-width:0.3;" x1="537.114" x2="568.914" y1="242.5781" y2="242.5781"/><text fill="#000000" font-family="sans-serif" font-size="8.4" lengthAdjust="spacing" textLength="39.3012" x="543.114" y="254.5752">SVG Files</text></g><!--entity NeedsJSON--><g class="entity" data-entity="NeedsJSON" data-source-line="54" data-uid="ent0012" id="entity_NeedsJSON"><path d="M616.014,236.8781 L616.014,255.6563 A1.5,1.5 0 0 0 617.514,257.1563 L671.7255,257.1563 A1.5,1.5 0 0 0 673.2255,255.6563 L673.2255,241.3781 L667.2255,235.3781 L617.514,235.3781 A1.5,1.5 0 0 0 616.014,236.8781" fill="#F5F5F5" style="stroke:#696969;stroke-width:0.3;"/><path d="M667.2255,235.3781 L667.2255,239.8781 A1.5,1.5 0 0 0 668.7255,241.3781 L673.2255,241.3781" fill="#F5F5F5" style="stroke:#696969;stroke-width:0.3;"/><text fill="#000000" font-family="sans-serif" font-size="8.4" lengthAdjust="spacing" textLength="45.2115" x="622.014" y="249.1752">needs.json</text></g><!--link SphinxApp to Config--><g class="link" data-entity-1="SphinxApp" data-entity-2="Config" data-source-line="57" data-uid="lnk13" id="link_SphinxApp_Config"><path d="M315.018,60.7781 C283.572,60.7781 248.088,60.7781 222.276,60.7781" fill="none" id="SphinxApp-to-Config" style="stroke:#181818;stroke-width:0.6;"/><polygon fill="#181818" points="218.676,60.7781,224.076,63.1781,221.676,60.7781,224.076,58.3781,218.676,60.7781" style="stroke:#181818;stroke-width:0.6;"/><text fill="#000000" font-family="sans-serif" font-size="7.8" lengthAdjust="spacing" textLength="74.9531" x="229.614" y="56.6183">loads configuration</text></g><!--link Config to DCClass--><g class="link" data-entity-1="Config" data-entity-2="DCClass" data-source-line="58" data-uid="lnk14" id="link_Config_DCClass"><path d="M163.158,63.6581 C110.646,68.5181 3.6,81.3521 22.314,103.9781 C43.422,129.5021 127.4677,140.0255 188.0437,144.4895" fill="none" id="Config-to-DCClass" style="stroke:#181818;stroke-width:0.6;"/><polygon fill="#181818" points="191.634,144.7541,186.425,141.9638,188.6421,144.5336,186.0722,146.7508,191.634,144.7541" style="stroke:#181818;stroke-width:0.6;"/><text fill="#000000" font-family="sans-serif" font-size="7.8" lengthAdjust="spacing" textLength="178.5316" x="22.914" y="101.6183">config values (`verbose`, `needs_build_json`)</text></g><!--link SphinxApp to DCClass--><g class="link" data-entity-1="SphinxApp" data-entity-2="DCClass" data-source-line="60" data-uid="lnk15" id="link_SphinxApp_DCClass"><path d="M315.09,68.4581 C285.42,73.7321 252.144,82.0601 243.114,93.7781 C234.192,105.3521 237.582,119.2532 242.862,131.1152" fill="none" id="SphinxApp-to-DCClass" style="stroke:#181818;stroke-width:0.6;"/><polygon fill="#181818" points="244.326,134.4041,244.3227,128.4948,243.106,131.6634,239.9375,130.4467,244.326,134.4041" style="stroke:#181818;stroke-width:0.6;"/><text fill="#000000" font-family="sans-serif" font-size="7.8" lengthAdjust="spacing" textLength="109.8513" x="243.714" y="101.6183">instantiates, registers event</text></g><!--link SphinxBuilder to SVGs--><g class="link" data-entity-1="SphinxBuilder" data-entity-2="SVGs" data-source-line="62" data-uid="lnk16" id="link_SphinxBuilder_SVGs"><path d="M539.688,74.5901 C548.364,79.2641 556.44,85.5041 561.714,93.7781 C588.918,136.4681 578.5511,209.6191 571.2311,238.9711" fill="none" id="SphinxBuilder-to-SVGs" style="stroke:#181818;stroke-width:0.6;stroke-dasharray:7.0,7.0;"/><polygon fill="#181818" points="570.36,242.4641,573.9953,237.8053,571.0859,239.5533,569.338,236.6439,570.36,242.4641" style="stroke:#181818;stroke-width:0.6;"/><text fill="#000000" font-family="sans-serif" font-size="7.8" lengthAdjust="spacing" textLength="90.5531" x="579.114" y="151.1183">generates SVG content</text></g><!--link SphinxBuilder to NeedsJSON--><g class="link" data-entity-1="SphinxBuilder" data-entity-2="NeedsJSON" data-source-line="63" data-uid="lnk17" id="link_SphinxBuilder_NeedsJSON"><path d="M555.852,67.8761 C619.14,78.6041 714.672,106.7681 744.714,180.1781 C758.364,213.5321 710.9895,230.8736 676.7775,239.1296" fill="none" id="SphinxBuilder-to-NeedsJSON" style="stroke:#181818;stroke-width:0.6;stroke-dasharray:7.0,7.0;"/><polygon fill="#181818" points="673.278,239.9741,679.0903,241.0404,676.1943,239.2704,677.9643,236.3743,673.278,239.9741" style="stroke:#181818;stroke-width:0.6;"/><text fill="#000000" font-family="sans-serif" font-size="7.8" lengthAdjust="spacing" textLength="157.2454" x="733.914" y="151.1183">generates needs.json (if needs enabled)</text></g><!--link SphinxApp to ResolveRefs--><g class="link" data-entity-1="SphinxApp" data-entity-2="ResolveRefs" data-source-line="65" data-uid="lnk18" id="link_SphinxApp_ResolveRefs"><path d="M361.164,74.6561 C358.728,83.2781 357.03,94.6121 360.714,103.9781 C365.436,115.9661 372.4656,124.2301 381.2316,132.0241" fill="none" id="SphinxApp-to-ResolveRefs" style="stroke:#181818;stroke-width:0.6;stroke-dasharray:7.0,7.0;"/><polygon fill="#181818" points="383.922,134.4161,381.4811,129.0345,381.68,132.4227,378.2917,132.6216,383.922,134.4161" style="stroke:#181818;stroke-width:0.6;"/><text fill="#000000" font-family="sans-serif" font-size="7.8" lengthAdjust="spacing" textLength="114.0902" x="361.314" y="101.6183">`build-finished` event trigger</text></g><!--link ResolveRefs to SVGs--><g class="link" data-entity-1="ResolveRefs" data-entity-2="SVGs" data-source-line="67" data-uid="lnk19" id="link_ResolveRefs_SVGs"><path d="M423.756,162.2021 C437.538,170.3681 455.622,181.0361 471.714,190.3781 C475.434,192.5381 476.394,193.0241 480.114,195.1781 C500.07,206.7401 519.4452,218.1233 536.3832,228.1133" fill="none" id="ResolveRefs-to-SVGs" style="stroke:#181818;stroke-width:0.6;"/><polygon fill="#181818" points="539.484,229.9421,536.052,225.1316,536.9,228.4181,533.6135,229.266,539.484,229.9421" style="stroke:#181818;stroke-width:0.6;"/><text fill="#000000" font-family="sans-serif" font-size="7.8" lengthAdjust="spacing" textLength="99.2558" x="472.314" y="188.0183">reads/writes SVG content</text></g><!--link ResolveRefs to NeedsJSON--><g class="link" data-entity-1="ResolveRefs" data-entity-2="NeedsJSON" data-source-line="68" data-uid="lnk20" id="link_ResolveRefs_NeedsJSON"><path d="M470.538,156.3401 C503.298,161.0741 542.64,168.5741 576.714,180.1781 C590.376,184.8281 594.438,185.9201 605.514,195.1781 C619.434,206.8121 629.6142,221.1725 636.5082,232.1885" fill="none" id="ResolveRefs-to-NeedsJSON" style="stroke:#181818;stroke-width:0.6;stroke-dasharray:7.0,7.0;"/><polygon fill="#181818" points="638.418,235.2401,637.5878,229.3894,636.8265,232.6971,633.5189,231.9358,638.418,235.2401" style="stroke:#181818;stroke-width:0.6;"/><text fill="#000000" font-family="sans-serif" font-size="7.8" lengthAdjust="spacing" textLength="140.3619" x="599.514" y="188.0183">reads needs.json (via `_init_needs`)</text></g><!--link DCClass to NeedsList--><g class="link" data-entity-1="DCClass" data-entity-2="NeedsList" data-source-line="70" data-uid="lnk21" id="link_DCClass_NeedsList"><path d="M255.456,162.2081 C260.958,180.6521 269.8409,210.4603 275.3429,228.9043" fill="none" id="DCClass-to-NeedsList" style="stroke:#181818;stroke-width:0.6;stroke-dasharray:7.0,7.0;"/><polygon fill="#181818" points="276.372,232.3541,277.1282,226.4934,275.5144,229.4793,272.5285,227.8655,276.372,232.3541" style="stroke:#181818;stroke-width:0.6;"/><text fill="#000000" font-family="sans-serif" font-size="7.8" lengthAdjust="spacing" textLength="27.46" x="264.114" y="188.0183">utilizes</text></g><!--link ResolveRefs to SphinxBuilder--><g class="link" data-entity-1="ResolveRefs" data-entity-2="SphinxBuilder" data-source-line="72" data-uid="lnk22" id="link_ResolveRefs_SphinxBuilder"><path d="M435.006,134.5001 C449.82,127.2821 466.512,117.1061 478.314,103.9781 C485.814,95.6321 489.5703,87.2284 492.4263,78.1444" fill="none" id="ResolveRefs-to-SphinxBuilder" style="stroke:#181818;stroke-width:0.6;"/><polygon fill="#181818" points="493.506,74.7101,489.5969,79.1417,492.6062,77.572,494.1759,80.5813,493.506,74.7101" style="stroke:#181818;stroke-width:0.6;"/><text fill="#000000" font-family="sans-serif" font-size="7.8" lengthAdjust="spacing" textLength="71.1255" x="485.514" y="101.6183">logs warnings/info</text></g><!--SRC=[ZLF9Rjim5BphAnxSYmF4Zj2aGkn306z9KMG1aY2Neh1ewKbcGvC2IJbBqNylIOcslC6LBp8vCsyu76cg6S9JCQVylJEc99TaqHa9pZ7HC1ABGd3a6kgT8509CVYm6vdNLyeBObOXnOoKJ3_ZkuO_0S2ru7eac93m9NHFyBS9JrQo5ZmaoMikHSdJcZ8OZoydaTqHCaLPhvwVHr6lTroyC78an_tIr-QPXDlIez5W44N7fLEYoOoe0zgzS3BfxMY7OHI5uN7jJ313sgyy32VXRY0NqUNNuSL_A5DsA8rlzhUj6_Nixv2kZxTLLGR68YaNvYg9feB3iAGiRVcStTIVDN1G58mc3lOBYAehPrOR5-wnJiQaqVx-V7Txqe3xZGOb4Jph5XyEP7gRqNnri5sxEmsVl6laodZQCbtZLXy28qgv4UEHUsywaAW4M-9KOeOIUO8Axb3FHUe8ZzNk8sORf7l4LDrILMj3EvDY0QfooUrcTUurpfFDgLP5zBVmKEgYj5-fD6w5_6ZvEhhJrDrgFRtSmBLfWsgvH5zkLADRhYOjDxdxMzb0_FGVJm_tpKpNDzUHD9_hpfKFlWzCa5H1ulwMqjrsK6zs3CwdrwyXi2IiD7cruoNAcL0OdqBiF4ndzggdrabyidVcMejofGdNb6XKfo0nDt6XL81BKqpFzTNffkADTw-gu_SXHuxI4ks2TQKjPulYHXhEEeucSPqPj6bM_GNaPCOmtR3kHpShqOVOdRIJKKxL7DEuiWtQ3CrH1a4JRJEiZKiqIP-zIRhjlOdlRfbsf0t3IqeWdfhPUkgMRTW-sHNRzQyFfQQCVgBQusaZBrk3NC4RaPpoN9rHdedW7m00]--></g></svg>