<svg xmlns="http://www.w3.org/2000/svg" xmlns:xlink="http://www.w3.org/1999/xlink" contentStyleType="text/css" height="371.5px" preserveAspectRatio="none" style="width:913px;height:371px;background:#FFFFFF;" version="1.1" viewBox="0 0 913 371" width="913px" zoomAndPan="magnify"><defs/><g><text fill="#000000" font-family="sans-serif" font-size="20" font-weight="bold" lengthAdjust="spacing" textLength="519" x="193.5" y="23.5645">Sphinx-Diagram-Connect Component Diagram</text><!--cluster Sphinx Documentation Build--><g id="cluster_Sphinx Documentation Build"><path d="M4.25,38.5688 L242.75,38.5688 A1.875,1.875 0 0 1 244,39.8188 L247.5,59.0298 L620.25,59.0298 A1.25,1.25 0 0 1 621.5,60.2798 L621.5,104.3188 A1.25,1.25 0 0 1 620.25,105.5688 L4.25,105.5688 A1.25,1.25 0 0 1 3,104.3188 L3,39.8188 A1.25,1.25 0 0 1 4.25,38.5688 " fill="#FFFFE0" style="stroke:#CCAA66;stroke-width:0.75;"/><line style="stroke:#CCAA66;stroke-width:0.75;" x1="3" x2="247.5" y1="59.0298" y2="59.0298"/><text fill="#000000" font-family="sans-serif" font-size="15" font-weight="bold" lengthAdjust="spacing" textLength="238" x="5" y="53.4922">Sphinx Documentation Build</text></g><!--cluster Sphinx-Diagram-Connect Extension--><g id="cluster_Sphinx-Diagram-Connect Extension"><path d="M84.25,157.0688 L380.75,157.0688 A1.875,1.875 0 0 1 382,158.3188 L385.5,177.5298 L527.25,177.5298 A1.25,1.25 0 0 1 528.5,178.7798 L528.5,360.0688 A1.25,1.25 0 0 1 527.25,361.3188 L84.25,361.3188 A1.25,1.25 0 0 1 83,360.0688 L83,158.3188 A1.25,1.25 0 0 1 84.25,157.0688 " fill="#FFFFE0" style="stroke:#CCAA66;stroke-width:0.75;"/><line style="stroke:#CCAA66;stroke-width:0.75;" x1="83" x2="385.5" y1="177.5298" y2="177.5298"/><text fill="#000000" font-family="sans-serif" font-size="15" font-weight="bold" lengthAdjust="spacing" textLength="296" x="85" y="171.9922">Sphinx-Diagram-Connect Extension</text></g><!--cluster Sphinx Output Directory--><g id="cluster_Sphinx Output Directory"><path d="M550,289.8188 C550,284.8188 656.25,284.8188 656.25,284.8188 C656.25,284.8188 762.5,284.8188 762.5,289.8188 L762.5,358.3188 C762.5,363.3188 656.25,363.3188 656.25,363.3188 C656.25,363.3188 550,363.3188 550,358.3188 L550,289.8188 " fill="#90EE90" style="stroke:#006600;stroke-width:0.5;"/><path d="M550,289.8188 C550,294.8188 656.25,294.8188 656.25,294.8188 C656.25,294.8188 762.5,294.8188 762.5,289.8188 " fill="none" style="stroke:#006600;stroke-width:0.5;"/><text fill="#000000" font-family="sans-serif" font-size="15" font-weight="bold" lengthAdjust="spacing" textLength="204.5" x="554" y="309.7422">Sphinx Output Directory</text></g><!--entity SphinxApp--><g id="elem_SphinxApp"><rect fill="#ADD8E6" height="32.4609" rx="1.25" ry="1.25" style="stroke:#336699;stroke-width:0.25;" width="159.5" x="248.75" y="65.0688"/><rect fill="#ADD8E6" height="5" style="stroke:#336699;stroke-width:0.25;" width="7.5" x="398.25" y="67.5688"/><rect fill="#ADD8E6" height="1" style="stroke:#336699;stroke-width:0.25;" width="2" x="397.25" y="68.5688"/><rect fill="#ADD8E6" height="1" style="stroke:#336699;stroke-width:0.25;" width="2" x="397.25" y="70.5688"/><text fill="#000000" font-family="sans-serif" font-size="15" lengthAdjust="spacing" textLength="139.5" x="256.25" y="88.9922">Sphinx Application</text></g><!--entity SphinxBuilder--><g id="elem_SphinxBuilder"><rect fill="#ADD8E6" height="32.4609" rx="1.25" ry="1.25" style="stroke:#336699;stroke-width:0.25;" width="187.5" x="425.75" y="65.0688"/><rect fill="#ADD8E6" height="5" style="stroke:#336699;stroke-width:0.25;" width="7.5" x="603.25" y="67.5688"/><rect fill="#ADD8E6" height="1" style="stroke:#336699;stroke-width:0.25;" width="2" x="602.25" y="68.5688"/><rect fill="#ADD8E6" height="1" style="stroke:#336699;stroke-width:0.25;" width="2" x="602.25" y="70.5688"/><text fill="#000000" font-family="sans-serif" font-size="15" lengthAdjust="spacing" textLength="167.5" x="433.25" y="88.9922">Sphinx Builder (HTML)</text></g><!--entity Config--><g id="elem_Config"><rect fill="#F5F5F5" height="32.4609" rx="1.25" ry="1.25" style="stroke:#336699;stroke-width:0.25;" width="76" x="11" y="65.0688"/><rect fill="#F5F5F5" height="5" style="stroke:#336699;stroke-width:0.25;" width="7.5" x="77" y="67.5688"/><rect fill="#F5F5F5" height="1" style="stroke:#336699;stroke-width:0.25;" width="2" x="76" y="68.5688"/><rect fill="#F5F5F5" height="1" style="stroke:#336699;stroke-width:0.25;" width="2" x="76" y="70.5688"/><text fill="#000000" font-family="sans-serif" font-size="15" lengthAdjust="spacing" textLength="56" x="18.5" y="88.9922">conf.py</text></g><!--entity DCClass--><g id="elem_DCClass"><rect fill="#ADD8E6" height="32.4609" rx="1.25" ry="1.25" style="stroke:#336699;stroke-width:0.25;" width="190" x="91" y="183.5688"/><rect fill="#ADD8E6" height="5" style="stroke:#336699;stroke-width:0.25;" width="7.5" x="271" y="186.0688"/><rect fill="#ADD8E6" height="1" style="stroke:#336699;stroke-width:0.25;" width="2" x="270" y="187.0688"/><rect fill="#ADD8E6" height="1" style="stroke:#336699;stroke-width:0.25;" width="2" x="270" y="189.0688"/><text fill="#000000" font-family="sans-serif" font-size="15" lengthAdjust="spacing" textLength="170" x="98.5" y="207.4922">DiagramConnect Class</text></g><!--entity ResolveRefs--><g id="elem_ResolveRefs"><rect fill="#ADD8E6" height="32.4609" rx="1.25" ry="1.25" style="stroke:#336699;stroke-width:0.25;" width="222" x="298.5" y="183.5688"/><rect fill="#ADD8E6" height="5" style="stroke:#336699;stroke-width:0.25;" width="7.5" x="510.5" y="186.0688"/><rect fill="#ADD8E6" height="1" style="stroke:#336699;stroke-width:0.25;" width="2" x="509.5" y="187.0688"/><rect fill="#ADD8E6" height="1" style="stroke:#336699;stroke-width:0.25;" width="2" x="509.5" y="189.0688"/><text fill="#000000" font-family="sans-serif" font-size="15" lengthAdjust="spacing" textLength="202" x="306" y="207.4922">resolve_references Method</text></g><!--entity NeedsList--><g id="elem_NeedsList"><rect fill="#ADD8E6" height="32.4609" rx="1.25" ry="1.25" style="stroke:#336699;stroke-width:0.25;" width="294.5" x="91.25" y="320.8188"/><rect fill="#ADD8E6" height="5" style="stroke:#336699;stroke-width:0.25;" width="7.5" x="375.75" y="323.3188"/><rect fill="#ADD8E6" height="1" style="stroke:#336699;stroke-width:0.25;" width="2" x="374.75" y="324.3188"/><rect fill="#ADD8E6" height="1" style="stroke:#336699;stroke-width:0.25;" width="2" x="374.75" y="326.3188"/><text fill="#000000" font-family="sans-serif" font-size="15" lengthAdjust="spacing" textLength="274.5" x="98.75" y="344.7422">NeedsList Class (from sphinx-needs)</text></g><!--entity SVGs--><g id="elem_SVGs"><path d="M560.75,318.8188 L581.25,318.8188 A1.875,1.875 0 0 1 582.5,320.0688 L586,329.3188 L643.25,329.3188 A1.25,1.25 0 0 1 644.5,330.5688 L644.5,354.0298 A1.25,1.25 0 0 1 643.25,355.2798 L560.75,355.2798 A1.25,1.25 0 0 1 559.5,354.0298 L559.5,320.0688 A1.25,1.25 0 0 1 560.75,318.8188 " fill="#B0E0E6" style="stroke:#4682B4;stroke-width:0.25;"/><line style="stroke:#4682B4;stroke-width:0.25;" x1="559.5" x2="586" y1="329.3188" y2="329.3188"/><text fill="#000000" font-family="sans-serif" font-size="15" lengthAdjust="spacing" textLength="70" x="564.5" y="346.7422">SVG Files</text></g><!--entity NeedsJSON--><g id="elem_NeedsJSON"><path d="M662.25,324.5688 L662.25,349.5298 A1.25,1.25 0 0 0 663.5,350.7798 L751.5,350.7798 A1.25,1.25 0 0 0 752.75,349.5298 L752.75,328.3188 L747.75,323.3188 L663.5,323.3188 A1.25,1.25 0 0 0 662.25,324.5688 " fill="#F5F5F5" style="stroke:#696969;stroke-width:0.25;"/><path d="M747.75,323.3188 L747.75,327.0688 A1.25,1.25 0 0 0 749,328.3188 L752.75,328.3188 " fill="#F5F5F5" style="stroke:#696969;stroke-width:0.25;"/><text fill="#000000" font-family="sans-serif" font-size="15" lengthAdjust="spacing" textLength="80.5" x="667.25" y="342.2422">needs.json</text></g><!--link SphinxApp to Config--><g id="link_SphinxApp_Config"><path d="M248.64,81.3188 C195.645,81.3188 131.475,81.3188 90.13,81.3188 " fill="none" id="SphinxApp-to-Config" style="stroke:#181818;stroke-width:0.5;"/><polygon fill="#181818" points="87.13,81.3188,91.63,83.3188,89.63,81.3188,91.63,79.3188,87.13,81.3188" style="stroke:#181818;stroke-width:0.5;"/><text fill="#000000" font-family="sans-serif" font-size="15" lengthAdjust="spacing" textLength="143.5" x="96.125" y="76.2422">loads configuration</text></g><!--link Config to DCClass--><g id="link_Config_DCClass"><path d="M49.115,97.6438 C50.04,112.5538 53.625,134.6938 66,149.0688 C79.745,165.0288 96.5979,174.9444 116.0329,182.4794 " fill="none" id="Config-to-DCClass" style="stroke:#181818;stroke-width:0.5;"/><polygon fill="#181818" points="118.83,183.5638,115.3573,180.0724,116.4991,182.6601,113.9113,183.8019,118.83,183.5638" style="stroke:#181818;stroke-width:0.5;"/><text fill="#000000" font-family="sans-serif" font-size="15" lengthAdjust="spacing" textLength="99.5" x="66.5" y="127.9922">config values</text><text fill="#000000" font-family="sans-serif" font-size="15" lengthAdjust="spacing" textLength="86.5" x="73" y="145.4531">(`verbose`)</text></g><!--link SphinxApp to DCClass--><g id="link_SphinxApp_DCClass"><path d="M248.735,94.1788 C227.005,99.1038 207.4,105.5488 200,113.5688 C182.51,132.5238 181.8769,161.4304 183.5569,180.5154 " fill="none" id="SphinxApp-to-DCClass" style="stroke:#181818;stroke-width:0.5;"/><polygon fill="#181818" points="183.82,183.5038,185.4177,178.8458,183.6008,181.0135,181.4331,179.1966,183.82,183.5038" style="stroke:#181818;stroke-width:0.5;"/><text fill="#000000" font-family="sans-serif" font-size="15" lengthAdjust="spacing" textLength="93" x="210.5" y="127.9922">instantiates,</text><text fill="#000000" font-family="sans-serif" font-size="15" lengthAdjust="spacing" textLength="113" x="200.5" y="145.4531">registers event</text></g><!--link SphinxBuilder to SVGs--><g id="link_SphinxBuilder_SVGs"><path d="M582.57,97.6688 C589.4,101.7988 595.49,107.0088 600,113.5688 C622.695,146.5938 610.3574,279.5358 604.6624,326.3408 " fill="none" id="SphinxBuilder-to-SVGs" style="stroke:#181818;stroke-width:0.5;stroke-dasharray:7.0,7.0;"/><polygon fill="#181818" points="604.3,329.3188,606.8289,325.0934,604.602,326.8372,602.8582,324.6102,604.3,329.3188" style="stroke:#181818;stroke-width:0.5;"/><text fill="#000000" font-family="sans-serif" font-size="15" lengthAdjust="spacing" textLength="75" x="623" y="196.4922">generates</text><text fill="#000000" font-family="sans-serif" font-size="15" lengthAdjust="spacing" textLength="94" x="613.5" y="213.9531">SVG content</text></g><!--link SphinxBuilder to NeedsJSON--><g id="link_SphinxBuilder_NeedsJSON"><path d="M571.29,97.5938 C586.44,102.4538 602.965,107.9988 618,113.5688 C703.655,145.3038 749.86,154.7488 779,241.3188 C784.035,256.2738 785.68,262.5238 779,276.8188 C769.475,297.1888 751.765,311.4734 735.235,321.7184 " fill="none" id="SphinxBuilder-to-NeedsJSON" style="stroke:#181818;stroke-width:0.5;stroke-dasharray:7.0,7.0;"/><polygon fill="#181818" points="732.685,323.2988,737.5635,322.6282,734.81,321.9818,735.4563,319.2282,732.685,323.2988" style="stroke:#181818;stroke-width:0.5;"/><text fill="#000000" font-family="sans-serif" font-size="15" lengthAdjust="spacing" textLength="75" x="803.5" y="187.7422">generates</text><text fill="#000000" font-family="sans-serif" font-size="15" lengthAdjust="spacing" textLength="80.5" x="800.75" y="205.2031">needs.json</text><text fill="#000000" font-family="sans-serif" font-size="15" lengthAdjust="spacing" textLength="136" x="773" y="222.6641">(if needs enabled)</text></g><!--link SphinxApp to ResolveRefs--><g id="link_SphinxApp_ResolveRefs"><path d="M322.56,97.6138 C318.205,111.9988 314.47,133.3288 323.5,149.0688 C332.365,164.5188 345.3393,174.322 360.8843,182.132 " fill="none" id="SphinxApp-to-ResolveRefs" style="stroke:#181818;stroke-width:0.5;stroke-dasharray:7.0,7.0;"/><polygon fill="#181818" points="363.565,183.4788,360.4418,179.6715,361.3311,182.3565,358.6461,183.2458,363.565,183.4788" style="stroke:#181818;stroke-width:0.5;"/><text fill="#000000" font-family="sans-serif" font-size="15" lengthAdjust="spacing" textLength="116" x="324" y="127.9922">`build-finished`</text><text fill="#000000" font-family="sans-serif" font-size="15" lengthAdjust="spacing" textLength="97.5" x="333.25" y="145.4531">event trigger</text></g><!--link ResolveRefs to SVGs--><g id="link_ResolveRefs_SVGs"><path d="M402.815,216.1538 C396.68,233.5038 390.65,260.9588 406,276.8188 C410.735,281.7138 522.08,278.5438 528.5,280.8188 C550.465,288.6088 569.0344,313.983 582.8444,327.158 " fill="none" id="ResolveRefs-to-SVGs" style="stroke:#181818;stroke-width:0.5;"/><polygon fill="#181818" points="585.015,329.2288,583.1396,324.6755,583.2061,327.5032,580.3785,327.5697,585.015,329.2288" style="stroke:#181818;stroke-width:0.5;"/><text fill="#000000" font-family="sans-serif" font-size="15" lengthAdjust="spacing" textLength="191" x="406.5" y="264.4922">reads/writes SVG content</text></g><!--link ResolveRefs to NeedsJSON--><g id="link_ResolveRefs_NeedsJSON"><path d="M520.52,212.9588 C548.22,219.0288 577.1,228.0138 602,241.3188 C621.96,251.9838 618.815,265.6538 638.5,276.8188 C644.5,280.2238 647.55,277.3238 653.5,280.8188 C671.975,291.6688 686.5082,308.1603 696.2532,320.9103 " fill="none" id="ResolveRefs-to-NeedsJSON" style="stroke:#181818;stroke-width:0.5;stroke-dasharray:7.0,7.0;"/><polygon fill="#181818" points="698.075,323.2938,696.9314,318.5041,696.5569,321.3076,693.7533,320.9331,698.075,323.2938" style="stroke:#181818;stroke-width:0.5;"/><text fill="#000000" font-family="sans-serif" font-size="15" lengthAdjust="spacing" textLength="127" x="644.25" y="255.7422">reads needs.json</text><text fill="#000000" font-family="sans-serif" font-size="15" lengthAdjust="spacing" textLength="137.5" x="639" y="273.2031">(via `_init_needs`)</text></g><!--link DCClass to NeedsList--><g id="link_DCClass_NeedsList"><path d="M192.075,216.0838 C202.17,242.2788 221.2116,291.6944 231.3216,317.9394 " fill="none" id="DCClass-to-NeedsList" style="stroke:#181818;stroke-width:0.5;stroke-dasharray:7.0,7.0;"/><polygon fill="#181818" points="232.4,320.7388,232.6487,315.8207,231.5013,318.406,228.9161,317.2586,232.4,320.7388" style="stroke:#181818;stroke-width:0.5;"/><text fill="#000000" font-family="sans-serif" font-size="15" lengthAdjust="spacing" textLength="52.5" x="216" y="264.4922">utilizes</text></g><!--link ResolveRefs to SphinxBuilder--><g id="link_ResolveRefs_SphinxBuilder"><path d="M420.515,183.5388 C427.165,173.7788 435.645,160.8988 442.5,149.0688 C451.37,133.7638 448.145,126.2288 460.5,113.5688 C466.595,107.3238 471.5747,103.5014 479.2547,99.1164 " fill="none" id="ResolveRefs-to-SphinxBuilder" style="stroke:#181818;stroke-width:0.5;"/><polygon fill="#181818" points="481.86,97.6288,476.9605,98.1233,479.689,98.8684,478.9438,101.5969,481.86,97.6288" style="stroke:#181818;stroke-width:0.5;"/><text fill="#000000" font-family="sans-serif" font-size="15" lengthAdjust="spacing" textLength="136.5" x="461" y="136.7422">logs warnings/info</text></g><!--SRC=[ZLJPRjim47pNLopSbmIe7Q59XDW83FXGqXOvW3Z8G-iYfgMLp8Oc1P9oZgB_Nf8MRVa8Kkb5uixC3eShQQePmldesu-uSn9sHyMCyfVca99Sadbp83Z7HCD0p0l1aMkeAkT7Xe7T8509CVomTMeUdoWlY2b2YXafcRuGN8_e6y9nk5kynnSDVm80Yne89YHy2jqL_Arh9QlM5jmdoLCkHSdJYj8R3i_Yo5Q4J55MgyV7KTHkVonU63cIutxf2tF5uRRqOD3hHT77qYdHP4hKEzhjC8xREzfX64LX-B5s9fWXxLVkXt6u6yX9TFQbV_8VofIzbyQflRTrexQztzFryJQMOmL3aPHpSvH4Ky6XNrAMDdpEhklF2jWh2aOJ1_i5HC5osQpM3jnZdOn9u-3h_VNLOGtk2pLA8dZMAbuToCnsHlFLndRjxdm5yOj6heodBTCLRlMnCAAKQp4SkEUw0ubAi0K-IinG8azGmJNgcKWTuMvPlSDiWtI3cAehgYfjECYac8DQkkIskDpt6kV9PbUhGVIdS5lgehHViZHkXNnj-75qkwbcgp5wk8GBCmsguH9zk5IrsN9Zqd2TMx-L3SHt_pwwlQbdkZwvfgJvJ3UxFlWEC45I1ObxBQKxxQ0gDWtEfzUf8B0Wh4GrvWUJ1SgfK3WvtDjWJQHSQS8r9HhLvp6Nc9jmK2h0XHb3J_Q3qah5CszrbvljG8uSfMMEkGt3cD2MjCLnJGrflViDvZeZuvjcuDu1EPaoJ3Vi- -xr6UZ0P6eRDJFAgPfXEXbpPnsqwPkZ388wtAPMcPTeiZrwbjIuWBhzEhwrvTkHOCFoWXAOF9hk-j6jsyXzlYkw6xaEb9eoyxjNUqnjP6PFFbVmJ2IdF5T7b6SY-0S0]--></g></svg>