<svg xmlns="http://www.w3.org/2000/svg" xmlns:xlink="http://www.w3.org/1999/xlink" contentStyleType="text/css" height="282px" preserveAspectRatio="none" style="width:863px;height:282px;background:#FFFFFF;" version="1.1" viewBox="0 0 863 282" width="863.4px" zoomAndPan="magnify"><defs/><g><text fill="#000000" font-family="sans-serif" font-size="8.4" font-weight="bold" lengthAdjust="spacing" textLength="216" x="319.743" y="13.7971">Sphinx-Diagram-Connect Component Diagram</text><!--cluster Sphinx Documentation Build--><g id="cluster_Sphinx Documentation Build"><path d="M138.786,25.9781 L271.386,25.9781 A2.25,2.25 0 0 1 272.886,27.4781 L277.086,39.3562 L537.786,39.3562 A1.5,1.5 0 0 1 539.286,40.8562 L539.286,82.6781 A1.5,1.5 0 0 1 537.786,84.1781 L138.786,84.1781 A1.5,1.5 0 0 1 137.286,82.6781 L137.286,27.4781 A1.5,1.5 0 0 1 138.786,25.9781 " fill="#FFFFE0" style="stroke:#CCAA66;stroke-width:0.8999999999999999;"/><line style="stroke:#CCAA66;stroke-width:0.8999999999999999;" x1="137.286" x2="277.086" y1="39.3562" y2="39.3562"/><text fill="#000000" font-family="sans-serif" font-size="8.4" font-weight="bold" lengthAdjust="spacing" textLength="132" x="139.686" y="34.9752">Sphinx Documentation Build</text></g><!--cluster Sphinx-Diagram-Connect Extension--><g id="cluster_Sphinx-Diagram-Connect Extension"><path d="M163.986,113.5781 L330.786,113.5781 A2.25,2.25 0 0 1 332.286,115.0781 L336.486,126.9563 L457.386,126.9563 A1.5,1.5 0 0 1 458.886,128.4562 L458.886,268.0781 A1.5,1.5 0 0 1 457.386,269.5781 L163.986,269.5781 A1.5,1.5 0 0 1 162.486,268.0781 L162.486,115.0781 A1.5,1.5 0 0 1 163.986,113.5781 " fill="#FFFFE0" style="stroke:#CCAA66;stroke-width:0.8999999999999999;"/><line style="stroke:#CCAA66;stroke-width:0.8999999999999999;" x1="162.486" x2="336.486" y1="126.9563" y2="126.9563"/><text fill="#000000" font-family="sans-serif" font-size="8.4" font-weight="bold" lengthAdjust="spacing" textLength="166.2" x="164.886" y="122.5752">Sphinx-Diagram-Connect Extension</text></g><!--cluster Sphinx Output Directory--><g id="cluster_Sphinx Output Directory"><path d="M500.886,205.9781 C500.886,199.9781 578.286,199.9781 578.286,199.9781 C578.286,199.9781 655.686,199.9781 655.686,205.9781 L655.686,265.9781 C655.686,271.9781 578.286,271.9781 578.286,271.9781 C578.286,271.9781 500.886,271.9781 500.886,265.9781 L500.886,205.9781 " fill="#90EE90" style="stroke:#006600;stroke-width:0.6;"/><path d="M500.886,205.9781 C500.886,211.9781 578.286,211.9781 578.286,211.9781 C578.286,211.9781 655.686,211.9781 655.686,205.9781 " fill="none" style="stroke:#006600;stroke-width:0.6;"/><text fill="#000000" font-family="sans-serif" font-size="8.4" font-weight="bold" lengthAdjust="spacing" textLength="114" x="521.286" y="220.9752">Sphinx Output Directory</text></g><!--entity SphinxApp--><g id="elem_SphinxApp"><rect fill="#ADD8E6" height="27.7781" rx="1.5" ry="1.5" style="stroke:#336699;stroke-width:0.3;" width="99" x="295.386" y="46.9781"/><rect fill="#ADD8E6" height="6" style="stroke:#336699;stroke-width:0.3;" width="9" x="382.386" y="49.9781"/><rect fill="#ADD8E6" height="1.2" style="stroke:#336699;stroke-width:0.3;" width="2.4" x="381.186" y="51.1781"/><rect fill="#ADD8E6" height="1.2" style="stroke:#336699;stroke-width:0.3;" width="2.4" x="381.186" y="53.5781"/><text fill="#000000" font-family="sans-serif" font-size="8.4" lengthAdjust="spacing" textLength="75" x="304.386" y="66.7752">Sphinx Application</text></g><!--entity SphinxBuilder--><g id="elem_SphinxBuilder"><rect fill="#ADD8E6" height="27.7781" rx="1.5" ry="1.5" style="stroke:#336699;stroke-width:0.3;" width="114" x="415.686" y="46.9781"/><rect fill="#ADD8E6" height="6" style="stroke:#336699;stroke-width:0.3;" width="9" x="517.686" y="49.9781"/><rect fill="#ADD8E6" height="1.2" style="stroke:#336699;stroke-width:0.3;" width="2.4" x="516.486" y="51.1781"/><rect fill="#ADD8E6" height="1.2" style="stroke:#336699;stroke-width:0.3;" width="2.4" x="516.486" y="53.5781"/><text fill="#000000" font-family="sans-serif" font-size="8.4" lengthAdjust="spacing" textLength="90" x="424.686" y="66.7752">Sphinx Builder (HTML)</text></g><!--entity Config--><g id="elem_Config"><rect fill="#F5F5F5" height="27.7781" rx="1.5" ry="1.5" style="stroke:#336699;stroke-width:0.3;" width="54" x="146.886" y="46.9781"/><rect fill="#F5F5F5" height="6" style="stroke:#336699;stroke-width:0.3;" width="9" x="188.886" y="49.9781"/><rect fill="#F5F5F5" height="1.2" style="stroke:#336699;stroke-width:0.3;" width="2.4" x="187.686" y="51.1781"/><rect fill="#F5F5F5" height="1.2" style="stroke:#336699;stroke-width:0.3;" width="2.4" x="187.686" y="53.5781"/><text fill="#000000" font-family="sans-serif" font-size="8.4" lengthAdjust="spacing" textLength="30" x="155.886" y="66.7752">conf.py</text></g><!--entity DCClass--><g id="elem_DCClass"><rect fill="#ADD8E6" height="27.7781" rx="1.5" ry="1.5" style="stroke:#336699;stroke-width:0.3;" width="118.2" x="172.386" y="134.5781"/><rect fill="#ADD8E6" height="6" style="stroke:#336699;stroke-width:0.3;" width="9" x="278.586" y="137.5781"/><rect fill="#ADD8E6" height="1.2" style="stroke:#336699;stroke-width:0.3;" width="2.4" x="277.386" y="138.7781"/><rect fill="#ADD8E6" height="1.2" style="stroke:#336699;stroke-width:0.3;" width="2.4" x="277.386" y="141.1781"/><text fill="#000000" font-family="sans-serif" font-size="8.4" lengthAdjust="spacing" textLength="94.2" x="181.386" y="154.3752">DiagramConnect Class</text></g><!--entity ResolveRefs--><g id="elem_ResolveRefs"><rect fill="#ADD8E6" height="27.7781" rx="1.5" ry="1.5" style="stroke:#336699;stroke-width:0.3;" width="137.4" x="311.586" y="134.5781"/><rect fill="#ADD8E6" height="6" style="stroke:#336699;stroke-width:0.3;" width="9" x="436.986" y="137.5781"/><rect fill="#ADD8E6" height="1.2" style="stroke:#336699;stroke-width:0.3;" width="2.4" x="435.786" y="138.7781"/><rect fill="#ADD8E6" height="1.2" style="stroke:#336699;stroke-width:0.3;" width="2.4" x="435.786" y="141.1781"/><text fill="#000000" font-family="sans-serif" font-size="8.4" lengthAdjust="spacing" textLength="113.4" x="320.586" y="154.3752">resolve_references Method</text></g><!--entity NeedsList--><g id="elem_NeedsList"><rect fill="#ADD8E6" height="27.7781" rx="1.5" ry="1.5" style="stroke:#336699;stroke-width:0.3;" width="175.2" x="172.086" y="232.3781"/><rect fill="#ADD8E6" height="6" style="stroke:#336699;stroke-width:0.3;" width="9" x="335.286" y="235.3781"/><rect fill="#ADD8E6" height="1.2" style="stroke:#336699;stroke-width:0.3;" width="2.4" x="334.086" y="236.5781"/><rect fill="#ADD8E6" height="1.2" style="stroke:#336699;stroke-width:0.3;" width="2.4" x="334.086" y="238.9781"/><text fill="#000000" font-family="sans-serif" font-size="8.4" lengthAdjust="spacing" textLength="151.2" x="181.086" y="252.1752">NeedsList Class (from sphinx-needs)</text></g><!--entity SVGs--><g id="elem_SVGs"><path d="M511.986,229.9781 L536.586,229.9781 A2.25,2.25 0 0 1 538.086,231.4781 L542.286,242.5781 L565.386,242.5781 A1.5,1.5 0 0 1 566.886,244.0781 L566.886,261.0563 A1.5,1.5 0 0 1 565.386,262.5563 L511.986,262.5563 A1.5,1.5 0 0 1 510.486,261.0563 L510.486,231.4781 A1.5,1.5 0 0 1 511.986,229.9781 " fill="#B0E0E6" style="stroke:#4682B4;stroke-width:0.3;"/><line style="stroke:#4682B4;stroke-width:0.3;" x1="510.486" x2="542.286" y1="242.5781" y2="242.5781"/><text fill="#000000" font-family="sans-serif" font-size="8.4" lengthAdjust="spacing" textLength="38.4" x="516.486" y="254.5752">SVG Files</text></g><!--entity NeedsJSON--><g id="elem_NeedsJSON"><path d="M588.186,236.8781 L588.186,255.6563 A1.5,1.5 0 0 0 589.686,257.1563 L644.886,257.1563 A1.5,1.5 0 0 0 646.386,255.6563 L646.386,241.3781 L640.386,235.3781 L589.686,235.3781 A1.5,1.5 0 0 0 588.186,236.8781 " fill="#F5F5F5" style="stroke:#696969;stroke-width:0.3;"/><path d="M640.386,235.3781 L640.386,239.8781 A1.5,1.5 0 0 0 641.886,241.3781 L646.386,241.3781 " fill="#F5F5F5" style="stroke:#696969;stroke-width:0.3;"/><text fill="#000000" font-family="sans-serif" font-size="8.4" lengthAdjust="spacing" textLength="46.2" x="594.186" y="249.1752">needs.json</text></g><!--link SphinxApp to Config--><g id="link_SphinxApp_Config"><path d="M295.356,60.7781 C264.606,60.7781 229.866,60.7781 204.576,60.7781 " fill="none" id="SphinxApp-to-Config" style="stroke:#181818;stroke-width:0.6;"/><polygon fill="#181818" points="200.976,60.7781,206.376,63.1781,203.976,60.7781,206.376,58.3781,200.976,60.7781" style="stroke:#181818;stroke-width:0.6;"/><text fill="#000000" font-family="sans-serif" font-size="7.8" lengthAdjust="spacing" textLength="72.6" x="211.836" y="56.6183">loads configuration</text></g><!--link Config to DCClass--><g id="link_Config_DCClass"><path d="M146.766,62.5781 C104.004,65.1041 23.958,72.5981 6.486,93.7781 C3.6,97.2761 3.6,100.4801 6.486,103.9781 C27.108,129.0101 109.0968,139.6389 168.5508,144.2649 " fill="none" id="Config-to-DCClass" style="stroke:#181818;stroke-width:0.6;"/><polygon fill="#181818" points="172.14,144.5441,166.9424,141.7325,169.149,144.3114,166.5701,146.518,172.14,144.5441" style="stroke:#181818;stroke-width:0.6;"/><text fill="#000000" font-family="sans-serif" font-size="7.8" lengthAdjust="spacing" textLength="175.8" x="7.086" y="101.6183">config values (`verbose`, `needs_build_json`)</text></g><!--link SphinxApp to DCClass--><g id="link_SphinxApp_DCClass"><path d="M295.248,68.5901 C266.262,73.9301 233.688,82.2761 224.886,93.7781 C216.042,105.3281 218.8887,119.1809 223.6287,131.0489 " fill="none" id="SphinxApp-to-DCClass" style="stroke:#181818;stroke-width:0.6;"/><polygon fill="#181818" points="224.964,134.3921,225.1899,128.4871,223.8513,131.6061,220.7323,130.2675,224.964,134.3921" style="stroke:#181818;stroke-width:0.6;"/><text fill="#000000" font-family="sans-serif" font-size="7.8" lengthAdjust="spacing" textLength="107.4" x="225.486" y="101.6183">instantiates, registers event</text></g><!--link SphinxBuilder to SVGs--><g id="link_SphinxBuilder_SVGs"><path d="M512.31,74.6021 C520.806,79.3181 528.762,85.5641 533.886,93.7781 C560.676,136.7321 550.8177,209.7434 543.7977,239.0114 " fill="none" id="SphinxBuilder-to-SVGs" style="stroke:#181818;stroke-width:0.6;stroke-dasharray:7.0,7.0;"/><polygon fill="#181818" points="542.958,242.5121,546.5513,237.8208,543.6577,239.5949,541.8837,236.7013,542.958,242.5121" style="stroke:#181818;stroke-width:0.6;"/><text fill="#000000" font-family="sans-serif" font-size="7.8" lengthAdjust="spacing" textLength="90" x="551.286" y="151.1183">generates SVG content</text></g><!--link SphinxBuilder to NeedsJSON--><g id="link_SphinxBuilder_NeedsJSON"><path d="M529.716,68.1101 C591.84,79.0661 686.292,107.4701 715.686,180.1781 C728.904,212.8901 683.4345,230.2849 649.8765,238.7569 " fill="none" id="SphinxBuilder-to-NeedsJSON" style="stroke:#181818;stroke-width:0.6;stroke-dasharray:7.0,7.0;"/><polygon fill="#181818" points="646.386,239.6381,652.2092,240.6433,649.2947,238.9038,651.0343,235.9893,646.386,239.6381" style="stroke:#181818;stroke-width:0.6;"/><text fill="#000000" font-family="sans-serif" font-size="7.8" lengthAdjust="spacing" textLength="154.2" x="704.886" y="151.1183">generates needs.json (if needs enabled)</text></g><!--link SphinxApp to ResolveRefs--><g id="link_SphinxApp_ResolveRefs"><path d="M340.236,74.6561 C337.974,83.2781 336.438,94.6181 340.086,103.9781 C344.766,116.0021 351.7801,124.3159 360.4801,132.1459 " fill="none" id="SphinxApp-to-ResolveRefs" style="stroke:#181818;stroke-width:0.6;stroke-dasharray:7.0,7.0;"/><polygon fill="#181818" points="363.156,134.5541,360.7477,129.1578,360.9261,132.5472,357.5367,132.7256,363.156,134.5541" style="stroke:#181818;stroke-width:0.6;"/><text fill="#000000" font-family="sans-serif" font-size="7.8" lengthAdjust="spacing" textLength="110.4" x="340.686" y="101.6183">`build-finished` event trigger</text></g><!--link ResolveRefs to SVGs--><g id="link_ResolveRefs_SVGs"><path d="M399.342,162.3341 C412.218,171.0041 429.816,182.1761 446.286,190.3781 C451.65,193.0481 453.522,192.4961 458.886,195.1781 C479.184,205.3301 497.8981,217.2183 513.5341,227.8623 " fill="none" id="ResolveRefs-to-SVGs" style="stroke:#181818;stroke-width:0.6;"/><polygon fill="#181818" points="516.51,229.8881,513.3967,224.8655,514.0301,228.1999,510.6956,228.8333,516.51,229.8881" style="stroke:#181818;stroke-width:0.6;"/><text fill="#000000" font-family="sans-serif" font-size="7.8" lengthAdjust="spacing" textLength="97.2" x="446.886" y="188.0183">reads/writes SVG content</text></g><!--link ResolveRefs to NeedsJSON--><g id="link_ResolveRefs_NeedsJSON"><path d="M449.028,156.7781 C480.264,161.5481 517.332,168.9641 549.486,180.1781 C562.89,184.8521 566.796,186.0641 577.686,195.1781 C591.678,206.8901 602.0529,221.2476 609.0969,232.2336 " fill="none" id="ResolveRefs-to-NeedsJSON" style="stroke:#181818;stroke-width:0.6;stroke-dasharray:7.0,7.0;"/><polygon fill="#181818" points="611.04,235.2641,610.1457,229.4229,609.4207,232.7387,606.1049,232.0137,611.04,235.2641" style="stroke:#181818;stroke-width:0.6;"/><text fill="#000000" font-family="sans-serif" font-size="7.8" lengthAdjust="spacing" textLength="138.6" x="571.686" y="188.0183">reads needs.json (via `_init_needs`)</text></g><!--link DCClass to NeedsList--><g id="link_DCClass_NeedsList"><path d="M235.344,162.2081 C240.732,180.6521 249.4316,210.4543 254.8136,228.8983 " fill="none" id="DCClass-to-NeedsList" style="stroke:#181818;stroke-width:0.6;stroke-dasharray:7.0,7.0;"/><polygon fill="#181818" points="255.822,232.3541,256.6133,226.498,254.9816,229.4742,252.0054,227.8426,255.822,232.3541" style="stroke:#181818;stroke-width:0.6;"/><text fill="#000000" font-family="sans-serif" font-size="7.8" lengthAdjust="spacing" textLength="26.4" x="244.086" y="188.0183">utilizes</text></g><!--link ResolveRefs to SphinxBuilder--><g id="link_ResolveRefs_SphinxBuilder"><path d="M411.906,134.5241 C426.276,127.2281 442.596,116.9861 454.086,103.9781 C461.508,95.5721 465.2681,87.1658 468.1421,78.0998 " fill="none" id="ResolveRefs-to-SphinxBuilder" style="stroke:#181818;stroke-width:0.6;"/><polygon fill="#181818" points="469.23,74.6681,465.3104,79.0904,468.3234,77.5279,469.886,80.5409,469.23,74.6681" style="stroke:#181818;stroke-width:0.6;"/><text fill="#000000" font-family="sans-serif" font-size="7.8" lengthAdjust="spacing" textLength="67.8" x="460.686" y="101.6183">logs warnings/info</text></g><!--SRC=[ZLF9Rjim5BphAnxSYmF4Zj2aGkn306z9KMG1aY2Neh1ewKbcGvC2IJbBqNylIOcslC6LBp8vCsyu76cg6S9JCQVylJEc99TaqHa9pZ7HC1ABGd3a6kgT8509CVYm6vdNLyeBObOXnOoKJ3_ZkuO_0S2ru7eac93m9NHFyBS9JrQo5ZmaoMikHSdJcZ8OZoydaTqHCaLPhvwVHr6lTroyC78an_tIr-QPXDlIez5W44N7fLEYoOoe0zgzS3BfxMY7OHI5uN7jJ313sgyy32VXRY0NqUNNuSL_A5DsA8rlzhUj6_Nixv2kZxTLLGR68YaNvYg9feB3iAGiRVcStTIVDN1G58mc3lOBYAehPrOR5-wnJiQaqVx-V7Txqe3xZGOb4Jph5XyEP7gRqNnri5sxEmsVl6laodZQCbtZLXy28qgv4UEHUsywaAW4M-9KOeOIUO8Axb3FHUe8ZzNk8sORf7l4LDrILMj3EvDY0QfooUrcTUurpfFDgLP5zBVmKEgYj5-fD6w5_6ZvEhhJrDrgFRtSmBLfWsgvH5zkLADRhYOjDxdxMzb0_FGVJm_tpKpNDzUHD9_hpfKFlWzCa5H1ulwMqjrsK6zs3CwdrwyXi2IiD7cruoNAcL0OdqBiF4ndzggdrabyidVcMejofGdNb6XKfo0nDt6XL81BKqpFzTNffkADTw-gu_SXHuxI4ks2TQKjPulYHXhEEeucSPqPj6bM_GNaPCOmtR3kHpShqOVOdRIJKKxL7DEuiWtQ3CrH1a4JRJEiZKiqIP-zIRhjlOdlRfbsf0t3IqeWdfhPUkgMRTW-sHNRzQyFfQQCVgBQusaZBrk3NC4RaPpoN9rHdedW7m00]--></g></svg>