<svg xmlns="http://www.w3.org/2000/svg" xmlns:xlink="http://www.w3.org/1999/xlink" contentStyleType="text/css" height="326.92px" preserveAspectRatio="none" style="width:803px;height:326px;" version="1.1" viewBox="0 0 803 326" width="803.44px" zoomAndPan="magnify"><defs/><g><text fill="#000000" font-family="sans-serif" font-size="17.6" font-weight="bold" lengthAdjust="spacing" textLength="456.72" x="170.28" y="20.7367">Sphinx-Diagram-Connect Component Diagram</text><!--cluster Sphinx Documentation Build--><g id="cluster_Sphinx Documentation Build"><path d="M3.74,33.9406 L213.62,33.9406 A1.65,1.65 0 0 1 214.72,35.0406 L217.8,51.9462 L545.82,51.9462 A1.1,1.1 0 0 1 546.92,53.0462 L546.92,91.8006 A1.1,1.1 0 0 1 545.82,92.9006 L3.74,92.9006 A1.1,1.1 0 0 1 2.64,91.8006 L2.64,35.0406 A1.1,1.1 0 0 1 3.74,33.9406 " fill="#FFFFE0" style="stroke:#CCAA66;stroke-width:0.66;"/><line style="stroke:#CCAA66;stroke-width:0.66;" x1="2.64" x2="217.8" y1="51.9462" y2="51.9462"/><text fill="#000000" font-family="sans-serif" font-size="13.2" font-weight="bold" lengthAdjust="spacing" textLength="209.44" x="4.4" y="47.0731">Sphinx Documentation Build</text></g><!--cluster Sphinx-Diagram-Connect Extension--><g id="cluster_Sphinx-Diagram-Connect Extension"><path d="M74.14,138.2206 L335.06,138.2206 A1.65,1.65 0 0 1 336.16,139.3206 L339.24,156.2262 L463.98,156.2262 A1.1,1.1 0 0 1 465.08,157.3262 L465.08,316.8606 A1.1,1.1 0 0 1 463.98,317.9606 L74.14,317.9606 A1.1,1.1 0 0 1 73.04,316.8606 L73.04,139.3206 A1.1,1.1 0 0 1 74.14,138.2206 " fill="#FFFFE0" style="stroke:#CCAA66;stroke-width:0.66;"/><line style="stroke:#CCAA66;stroke-width:0.66;" x1="73.04" x2="339.24" y1="156.2262" y2="156.2262"/><text fill="#000000" font-family="sans-serif" font-size="13.2" font-weight="bold" lengthAdjust="spacing" textLength="260.48" x="74.8" y="151.3531">Sphinx-Diagram-Connect Extension</text></g><!--cluster Sphinx Output Directory--><g id="cluster_Sphinx Output Directory"><path d="M484,255.0406 C484,250.6406 577.5,250.6406 577.5,250.6406 C577.5,250.6406 671,250.6406 671,255.0406 L671,315.3206 C671,319.7206 577.5,319.7206 577.5,319.7206 C577.5,319.7206 484,319.7206 484,315.3206 L484,255.0406 " fill="#90EE90" style="stroke:#006600;stroke-width:0.44;"/><path d="M484,255.0406 C484,259.4406 577.5,259.4406 577.5,259.4406 C577.5,259.4406 671,259.4406 671,255.0406 " fill="none" style="stroke:#006600;stroke-width:0.44;"/><text fill="#000000" font-family="sans-serif" font-size="13.2" font-weight="bold" lengthAdjust="spacing" textLength="179.96" x="487.52" y="272.5731">Sphinx Output Directory</text></g><!--entity SphinxApp--><g id="elem_SphinxApp"><rect fill="#ADD8E6" height="28.5656" rx="1.1" ry="1.1" style="stroke:#336699;stroke-width:0.22;" width="140.36" x="218.9" y="57.2606"/><rect fill="#ADD8E6" height="4.4" style="stroke:#336699;stroke-width:0.22;" width="6.6" x="350.46" y="59.4606"/><rect fill="#ADD8E6" height="0.88" style="stroke:#336699;stroke-width:0.22;" width="1.76" x="349.58" y="60.3406"/><rect fill="#ADD8E6" height="0.88" style="stroke:#336699;stroke-width:0.22;" width="1.76" x="349.58" y="62.1006"/><text fill="#000000" font-family="sans-serif" font-size="13.2" lengthAdjust="spacing" textLength="122.76" x="225.5" y="78.3131">Sphinx Application</text></g><!--entity SphinxBuilder--><g id="elem_SphinxBuilder"><rect fill="#ADD8E6" height="28.5656" rx="1.1" ry="1.1" style="stroke:#336699;stroke-width:0.22;" width="165" x="374.66" y="57.2606"/><rect fill="#ADD8E6" height="4.4" style="stroke:#336699;stroke-width:0.22;" width="6.6" x="530.86" y="59.4606"/><rect fill="#ADD8E6" height="0.88" style="stroke:#336699;stroke-width:0.22;" width="1.76" x="529.98" y="60.3406"/><rect fill="#ADD8E6" height="0.88" style="stroke:#336699;stroke-width:0.22;" width="1.76" x="529.98" y="62.1006"/><text fill="#000000" font-family="sans-serif" font-size="13.2" lengthAdjust="spacing" textLength="147.4" x="381.26" y="78.3131">Sphinx Builder (HTML)</text></g><!--entity Config--><g id="elem_Config"><rect fill="#F5F5F5" height="28.5656" rx="1.1" ry="1.1" style="stroke:#336699;stroke-width:0.22;" width="66.88" x="9.68" y="57.2606"/><rect fill="#F5F5F5" height="4.4" style="stroke:#336699;stroke-width:0.22;" width="6.6" x="67.76" y="59.4606"/><rect fill="#F5F5F5" height="0.88" style="stroke:#336699;stroke-width:0.22;" width="1.76" x="66.88" y="60.3406"/><rect fill="#F5F5F5" height="0.88" style="stroke:#336699;stroke-width:0.22;" width="1.76" x="66.88" y="62.1006"/><text fill="#000000" font-family="sans-serif" font-size="13.2" lengthAdjust="spacing" textLength="49.28" x="16.28" y="78.3131">conf.py</text></g><!--entity DCClass--><g id="elem_DCClass"><rect fill="#ADD8E6" height="28.5656" rx="1.1" ry="1.1" style="stroke:#336699;stroke-width:0.22;" width="167.2" x="80.08" y="161.5406"/><rect fill="#ADD8E6" height="4.4" style="stroke:#336699;stroke-width:0.22;" width="6.6" x="238.48" y="163.7406"/><rect fill="#ADD8E6" height="0.88" style="stroke:#336699;stroke-width:0.22;" width="1.76" x="237.6" y="164.6206"/><rect fill="#ADD8E6" height="0.88" style="stroke:#336699;stroke-width:0.22;" width="1.76" x="237.6" y="166.3806"/><text fill="#000000" font-family="sans-serif" font-size="13.2" lengthAdjust="spacing" textLength="149.6" x="86.68" y="182.5931">DiagramConnect Class</text></g><!--entity ResolveRefs--><g id="elem_ResolveRefs"><rect fill="#ADD8E6" height="28.5656" rx="1.1" ry="1.1" style="stroke:#336699;stroke-width:0.22;" width="195.36" x="262.68" y="161.5406"/><rect fill="#ADD8E6" height="4.4" style="stroke:#336699;stroke-width:0.22;" width="6.6" x="449.24" y="163.7406"/><rect fill="#ADD8E6" height="0.88" style="stroke:#336699;stroke-width:0.22;" width="1.76" x="448.36" y="164.6206"/><rect fill="#ADD8E6" height="0.88" style="stroke:#336699;stroke-width:0.22;" width="1.76" x="448.36" y="166.3806"/><text fill="#000000" font-family="sans-serif" font-size="13.2" lengthAdjust="spacing" textLength="177.76" x="269.28" y="182.5931">resolve_references Method</text></g><!--entity NeedsList--><g id="elem_NeedsList"><rect fill="#ADD8E6" height="28.5656" rx="1.1" ry="1.1" style="stroke:#336699;stroke-width:0.22;" width="259.16" x="80.3" y="282.3206"/><rect fill="#ADD8E6" height="4.4" style="stroke:#336699;stroke-width:0.22;" width="6.6" x="330.66" y="284.5206"/><rect fill="#ADD8E6" height="0.88" style="stroke:#336699;stroke-width:0.22;" width="1.76" x="329.78" y="285.4006"/><rect fill="#ADD8E6" height="0.88" style="stroke:#336699;stroke-width:0.22;" width="1.76" x="329.78" y="287.1606"/><text fill="#000000" font-family="sans-serif" font-size="13.2" lengthAdjust="spacing" textLength="241.56" x="86.9" y="303.3731">NeedsList Class (from sphinx-needs)</text></g><!--entity SVGs--><g id="elem_SVGs"><path d="M493.46,280.5606 L511.5,280.5606 A1.65,1.65 0 0 1 512.6,281.6606 L515.68,289.8006 L566.06,289.8006 A1.1,1.1 0 0 1 567.16,290.9006 L567.16,311.5462 A1.1,1.1 0 0 1 566.06,312.6462 L493.46,312.6462 A1.1,1.1 0 0 1 492.36,311.5462 L492.36,281.6606 A1.1,1.1 0 0 1 493.46,280.5606 " fill="#B0E0E6" style="stroke:#4682B4;stroke-width:0.22;"/><line style="stroke:#4682B4;stroke-width:0.22;" x1="492.36" x2="515.68" y1="289.8006" y2="289.8006"/><text fill="#000000" font-family="sans-serif" font-size="13.2" lengthAdjust="spacing" textLength="61.6" x="496.76" y="305.1331">SVG Files</text></g><!--entity NeedsJSON--><g id="elem_NeedsJSON"><path d="M582.78,285.6206 L582.78,307.5862 A1.1,1.1 0 0 0 583.88,308.6862 L661.32,308.6862 A1.1,1.1 0 0 0 662.42,307.5862 L662.42,288.9206 L658.02,284.5206 L583.88,284.5206 A1.1,1.1 0 0 0 582.78,285.6206 " fill="#F5F5F5" style="stroke:#696969;stroke-width:0.22;"/><path d="M658.02,284.5206 L658.02,287.8206 A1.1,1.1 0 0 0 659.12,288.9206 L662.42,288.9206 " fill="#F5F5F5" style="stroke:#696969;stroke-width:0.22;"/><text fill="#000000" font-family="sans-serif" font-size="13.2" lengthAdjust="spacing" textLength="70.84" x="587.18" y="301.1731">needs.json</text></g><!--link SphinxApp to Config--><g id="link_SphinxApp_Config"><path d="M218.8032,71.5606 C172.1676,71.5606 115.698,71.5606 79.3144,71.5606 " fill="none" id="SphinxApp-to-Config" style="stroke:#181818;stroke-width:0.44;"/><polygon fill="#181818" points="76.6744,71.5606,80.6344,73.3206,78.8744,71.5606,80.6344,69.8006,76.6744,71.5606" style="stroke:#181818;stroke-width:0.44;"/><text fill="#000000" font-family="sans-serif" font-size="13.2" lengthAdjust="spacing" textLength="126.28" x="84.59" y="67.0931">loads configuration</text></g><!--link Config to DCClass--><g id="link_Config_DCClass"><path d="M43.2212,85.9266 C44.0352,99.0474 47.19,118.5306 58.08,131.1806 C70.1756,145.2254 85.0061,153.9511 102.1089,160.5819 " fill="none" id="Config-to-DCClass" style="stroke:#181818;stroke-width:0.44;"/><polygon fill="#181818" points="104.5704,161.5362,101.5144,158.4637,102.5192,160.7409,100.242,161.7457,104.5704,161.5362" style="stroke:#181818;stroke-width:0.44;"/><text fill="#000000" font-family="sans-serif" font-size="13.2" lengthAdjust="spacing" textLength="87.56" x="58.52" y="112.6331">config values</text><text fill="#000000" font-family="sans-serif" font-size="13.2" lengthAdjust="spacing" textLength="76.12" x="64.24" y="127.9988">(`verbose`)</text></g><!--link SphinxApp to DCClass--><g id="link_SphinxApp_DCClass"><path d="M218.8868,82.8774 C199.7644,87.2114 182.512,92.883 176,99.9406 C160.6088,116.621 160.0517,142.0588 161.5301,158.8536 " fill="none" id="SphinxApp-to-DCClass" style="stroke:#181818;stroke-width:0.44;"/><polygon fill="#181818" points="161.7616,161.4834,163.1676,157.3843,161.5687,159.2919,159.6611,157.693,161.7616,161.4834" style="stroke:#181818;stroke-width:0.44;"/><text fill="#000000" font-family="sans-serif" font-size="13.2" lengthAdjust="spacing" textLength="81.84" x="185.24" y="112.6331">instantiates,</text><text fill="#000000" font-family="sans-serif" font-size="13.2" lengthAdjust="spacing" textLength="99.44" x="176.44" y="127.9988">registers event</text></g><!--link SphinxBuilder to SVGs--><g id="link_SphinxBuilder_SVGs"><path d="M512.6616,85.9486 C518.672,89.583 524.0312,94.1678 528,99.9406 C547.9716,129.0026 537.1145,245.9915 532.1029,287.1799 " fill="none" id="SphinxBuilder-to-SVGs" style="stroke:#181818;stroke-width:0.44;stroke-dasharray:7.0,7.0;"/><polygon fill="#181818" points="531.784,289.8006,534.0094,286.0822,532.0497,287.6167,530.5152,285.657,531.784,289.8006" style="stroke:#181818;stroke-width:0.44;"/><text fill="#000000" font-family="sans-serif" font-size="13.2" lengthAdjust="spacing" textLength="66" x="548.24" y="172.9131">generates</text><text fill="#000000" font-family="sans-serif" font-size="13.2" lengthAdjust="spacing" textLength="82.72" x="539.88" y="188.2788">SVG content</text></g><!--link SphinxBuilder to NeedsJSON--><g id="link_SphinxBuilder_NeedsJSON"><path d="M502.7352,85.8826 C516.0672,90.1594 530.6092,95.039 543.84,99.9406 C619.2164,127.8674 659.8768,136.179 685.52,212.3606 C689.9508,225.521 691.3984,231.021 685.52,243.6006 C677.138,261.5262 661.5532,274.0966 647.0068,283.1122 " fill="none" id="SphinxBuilder-to-NeedsJSON" style="stroke:#181818;stroke-width:0.44;stroke-dasharray:7.0,7.0;"/><polygon fill="#181818" points="644.7628,284.503,649.0559,283.9128,646.6328,283.344,647.2016,280.9209,644.7628,284.503" style="stroke:#181818;stroke-width:0.44;"/><text fill="#000000" font-family="sans-serif" font-size="13.2" lengthAdjust="spacing" textLength="66" x="707.08" y="165.2131">generates</text><text fill="#000000" font-family="sans-serif" font-size="13.2" lengthAdjust="spacing" textLength="70.84" x="704.66" y="180.5788">needs.json</text><text fill="#000000" font-family="sans-serif" font-size="13.2" lengthAdjust="spacing" textLength="119.68" x="680.24" y="195.9444">(if needs enabled)</text></g><!--link SphinxApp to ResolveRefs--><g id="link_SphinxApp_ResolveRefs"><path d="M283.8528,85.9002 C280.0204,98.559 276.7336,117.3294 284.68,131.1806 C292.4812,144.7766 303.8986,153.4034 317.5782,160.2762 " fill="none" id="SphinxApp-to-ResolveRefs" style="stroke:#181818;stroke-width:0.44;stroke-dasharray:7.0,7.0;"/><polygon fill="#181818" points="319.9372,161.4614,317.1888,158.1109,317.9714,160.4737,315.6086,161.2563,319.9372,161.4614" style="stroke:#181818;stroke-width:0.44;"/><text fill="#000000" font-family="sans-serif" font-size="13.2" lengthAdjust="spacing" textLength="102.08" x="285.12" y="112.6331">`build-finished`</text><text fill="#000000" font-family="sans-serif" font-size="13.2" lengthAdjust="spacing" textLength="85.8" x="293.26" y="127.9988">event trigger</text></g><!--link ResolveRefs to SVGs--><g id="link_ResolveRefs_SVGs"><path d="M354.4772,190.2154 C349.0784,205.4834 343.772,229.6438 357.28,243.6006 C361.4468,247.9082 459.4304,245.1186 465.08,247.1206 C484.4092,253.9758 500.7502,276.3051 512.903,287.8991 " fill="none" id="ResolveRefs-to-SVGs" style="stroke:#181818;stroke-width:0.44;"/><polygon fill="#181818" points="514.8132,289.7214,513.1628,285.7145,513.2214,288.2028,510.7331,288.2613,514.8132,289.7214" style="stroke:#181818;stroke-width:0.44;"/><text fill="#000000" font-family="sans-serif" font-size="13.2" lengthAdjust="spacing" textLength="168.08" x="357.72" y="232.7531">reads/writes SVG content</text></g><!--link ResolveRefs to NeedsJSON--><g id="link_ResolveRefs_NeedsJSON"><path d="M458.0576,187.4038 C482.4336,192.7454 507.848,200.6522 529.76,212.3606 C547.3248,221.7458 544.5572,233.7754 561.88,243.6006 C567.16,246.597 569.844,244.045 575.08,247.1206 C591.338,256.6686 604.1273,271.1811 612.7029,282.4011 " fill="none" id="ResolveRefs-to-NeedsJSON" style="stroke:#181818;stroke-width:0.44;stroke-dasharray:7.0,7.0;"/><polygon fill="#181818" points="614.306,284.4986,613.2996,280.2836,612.97,282.7507,610.5029,282.4211,614.306,284.4986" style="stroke:#181818;stroke-width:0.44;"/><text fill="#000000" font-family="sans-serif" font-size="13.2" lengthAdjust="spacing" textLength="111.76" x="566.94" y="225.0531">reads needs.json</text><text fill="#000000" font-family="sans-serif" font-size="13.2" lengthAdjust="spacing" textLength="121" x="562.32" y="240.4188">(via `_init_needs`)</text></g><!--link DCClass to NeedsList--><g id="link_DCClass_NeedsList"><path d="M169.026,190.1538 C177.9096,213.2054 194.6662,256.691 203.563,279.7866 " fill="none" id="DCClass-to-NeedsList" style="stroke:#181818;stroke-width:0.44;stroke-dasharray:7.0,7.0;"/><polygon fill="#181818" points="204.512,282.2502,204.7309,277.9222,203.7212,280.1972,201.4462,279.1875,204.512,282.2502" style="stroke:#181818;stroke-width:0.44;"/><text fill="#000000" font-family="sans-serif" font-size="13.2" lengthAdjust="spacing" textLength="46.2" x="190.08" y="232.7531">utilizes</text></g><!--link ResolveRefs to SphinxBuilder--><g id="link_ResolveRefs_SphinxBuilder"><path d="M370.0532,161.5142 C375.9052,152.9254 383.3676,141.591 389.4,131.1806 C397.2056,117.7122 394.3676,111.0814 405.24,99.9406 C410.6036,94.445 414.9858,91.0812 421.7442,87.2224 " fill="none" id="ResolveRefs-to-SphinxBuilder" style="stroke:#181818;stroke-width:0.44;"/><polygon fill="#181818" points="424.0368,85.9134,419.7252,86.3485,422.1263,87.0042,421.4705,89.4053,424.0368,85.9134" style="stroke:#181818;stroke-width:0.44;"/><text fill="#000000" font-family="sans-serif" font-size="13.2" lengthAdjust="spacing" textLength="120.12" x="405.68" y="120.3331">logs warnings/info</text></g><!--SRC=[ZLJBRjim4BphAnRkeGbGEqBZ2B4H6F13ILla0SH13gsBc99MCXkQ54ZAILhqtqlIaYs_a4eNYRipEpjSKbFD42x6Nx-7tRRV6-Spob-R8qeoIURDeU0SOmr3CSy5HwwXZ5oS60JsF4_5nE3zLhljgMVASsA2497uEPEYuCbGC251IyAL2Ha2x-FXj0_HMTGcvsdgrRWIJ4d1zANWUan_8vpwky47VDNmnmEmMIMNxnxlRvqhNhLXamVRvVkZqNaOs8YG2SfozVGq23gTzybpGqSot4zzQPxGtwOU3llz87YVEY6QH4GTuExuOTZPuVRz8F3zzxbJmGneF_F03_rTGzh1-UT1-p-OAJlanfbzjtc3ZdqFyLRsDfOZ2YCH5tEpbKHJmM5GK9OqAfzTrHzbOZ_F6OrTsayW2fRBPhMsuLMkep5k77rvkBa-hgLNWHea5ZnjvMykoPoJb6QhndRbxfoey5KZLqRJbkWoRtNm657AbHWDtNTTWKGbs0AV9APepbQC2cvGpqJY0FVBw3sc6w1Rn4HTKrLomr4gnHpKKYMtmMNVwxmARBfQ3MAr2tU5pWjxAqYZLiYtHZMEhfjojXhZnokuDDEW6ixHnojLcoqt9WrNkVLBMKEgwj_6TxTrJzSxrvGqc-bchpA-2qoGH47iVWlfTjihWqsJLxdNBLDWGLY1QiAFfWkKaL0uFTvRO0saN6d2DIKQrQS9bvWPSr0gm8MzrxpDGMabueMtUijckv0XHscH4sxDC2Aq1MrXN543MdU_WLnxP7JJ5Dm_82SHmsH3VbMzFWDTc4QsK3EbdAeP9jC9TzBDzKop3ANdrTEjQwLuYSRRanT9ZGgeow_djxPqEn1iI5vG0jCdKrq_kNLhUUNl2kv6hWk5finSzsgFg0tFxCvd2bw8v9HdweJoL7Z_0000]--></g></svg>