<svg xmlns="http://www.w3.org/2000/svg" xmlns:xlink="http://www.w3.org/1999/xlink" contentStyleType="text/css" height="166px" preserveAspectRatio="none" style="width:984px;height:166px;background:#FFFFFF;" version="1.1" viewBox="0 0 984 166" width="984px" zoomAndPan="magnify"><defs/><g><!--entity User--><g id="elem_User"><ellipse cx="22" cy="52.0659" fill="#F1F1F1" rx="8" ry="8" style="stroke:#181818;stroke-width:0.5;"/><path d="M22,60.0659 L22,87.0659 M9,68.0659 L35,68.0659 M22,87.0659 L9,102.0659 M22,87.0659 L35,102.0659 " fill="none" style="stroke:#181818;stroke-width:0.5;"/><text fill="#000000" font-family="sans-serif" font-size="14" lengthAdjust="spacing" textLength="32" x="6" y="116.561">User</text></g><!--entity Sphinx--><g id="elem_Sphinx"><path d="M243.5,61.5659 L243.5,85.5659 M243.5,73.5659 L260.5,73.5659 " fill="none" style="stroke:#181818;stroke-width:0.5;"/><ellipse cx="272.5" cy="73.5659" fill="#F1F1F1" rx="12" ry="12" style="stroke:#181818;stroke-width:0.5;"/><text fill="#000000" font-family="sans-serif" font-size="14" lengthAdjust="spacing" textLength="84" x="222" y="102.561">Sphinx Build</text></g><!--entity DC--><g id="elem_DC"><ellipse cx="595" cy="73.5659" fill="#F1F1F1" rx="12" ry="12" style="stroke:#181818;stroke-width:0.5;"/><polygon fill="#181818" points="591,61.5659,597,56.5659,595,61.5659,597,66.5659,591,61.5659" style="stroke:#181818;stroke-width:1.0;"/><text fill="#000000" font-family="sans-serif" font-size="14" lengthAdjust="spacing" textLength="116" x="537" y="102.561">DiagramConnect</text></g><!--entity SVG--><g id="elem_SVG"><ellipse cx="908.5" cy="24.5659" fill="#F1F1F1" rx="12" ry="12" style="stroke:#181818;stroke-width:0.5;"/><line style="stroke:#181818;stroke-width:0.5;" x1="896.5" x2="920.5" y1="38.5659" y2="38.5659"/><text fill="#000000" font-family="sans-serif" font-size="14" lengthAdjust="spacing" textLength="56" x="880.5" y="53.561">SVG File</text></g><!--entity SE--><g id="elem_SE"><ellipse cx="908.5" cy="122.5659" fill="#F1F1F1" rx="12" ry="12" style="stroke:#181818;stroke-width:0.5;"/><line style="stroke:#181818;stroke-width:0.5;" x1="896.5" x2="920.5" y1="136.5659" y2="136.5659"/><text fill="#000000" font-family="sans-serif" font-size="14" lengthAdjust="spacing" textLength="137" x="840" y="151.561">Sphinx Environment</text></g><!--link User to Sphinx--><g id="link_User_Sphinx"><path d="M38.01,81.5659 C74.24,81.5659 161.46,81.5659 215.86,81.5659 " fill="none" id="User-to-Sphinx" style="stroke:#181818;stroke-width:1.0;"/><polygon fill="#181818" points="221.86,81.5659,212.86,77.5659,216.86,81.5659,212.86,85.5659,221.86,81.5659" style="stroke:#181818;stroke-width:1.0;"/><text fill="#000000" font-family="sans-serif" font-size="13" lengthAdjust="spacing" textLength="67" x="96.5" y="77.6328">Build Docs</text></g><!--link Sphinx to User--><g id="link_Sphinx_User"><path d="M221.95,98.6559 C212.29,101.9359 201.92,104.8659 192,106.5659 C137.68,115.8459 121.35,120.3859 68,106.5659 C57.45,103.8259 51.7822,101.2625 43.4622,95.9325 " fill="none" id="Sphinx-to-User" style="stroke:#181818;stroke-width:1.0;"/><polygon fill="#181818" points="38.41,92.6959,43.8306,100.9189,42.6202,95.3931,48.146,94.1826,38.41,92.6959" style="stroke:#181818;stroke-width:1.0;"/><text fill="#000000" font-family="sans-serif" font-size="13" lengthAdjust="spacing" textLength="122" x="69" y="102.6328">Provide HTML Docs</text></g><!--link Sphinx to DC--><g id="link_Sphinx_DC"><path d="M306,81.5659 C364.22,81.5659 465.09,81.5659 530.99,81.5659 " fill="none" id="Sphinx-to-DC" style="stroke:#181818;stroke-width:1.0;"/><polygon fill="#181818" points="536.99,81.5659,527.99,77.5659,531.99,81.5659,527.99,85.5659,536.99,81.5659" style="stroke:#181818;stroke-width:1.0;"/><text fill="#000000" font-family="sans-serif" font-size="13" lengthAdjust="spacing" textLength="169" x="337" y="77.6328">Trigger resolve_references</text></g><!--link DC to Sphinx--><g id="link_DC_Sphinx"><path d="M536.93,100.4159 C527.05,102.9659 516.8,105.1859 507,106.5659 C431.74,117.1659 410.91,119.3659 336,106.5659 C326.08,104.8659 321.3914,103.865 311.7314,100.585 " fill="none" id="DC-to-Sphinx" style="stroke:#181818;stroke-width:1.0;"/><polygon fill="#181818" points="306.05,98.6559,313.2861,105.3372,310.7845,100.2635,315.8582,97.7619,306.05,98.6559" style="stroke:#181818;stroke-width:1.0;"/><text fill="#000000" font-family="sans-serif" font-size="13" lengthAdjust="spacing" textLength="84" x="379.5" y="102.6328">Build finished</text></g><!--link DC to SVG--><g id="link_DC_SVG"><path d="M631.19,57.4859 C646.42,48.4459 664.88,39.2359 683,34.5659 C752.26,16.7259 831.6244,22.7077 874.3944,27.9377 " fill="none" id="DC-to-SVG" style="stroke:#181818;stroke-width:1.0;"/><polygon fill="#181818" points="880.35,28.6659,871.9021,23.6031,875.387,28.059,870.931,31.5439,880.35,28.6659" style="stroke:#181818;stroke-width:1.0;"/><text fill="#000000" font-family="sans-serif" font-size="13" lengthAdjust="spacing" textLength="93" x="700" y="19.6328">Read SVG files</text></g><!--link DC to SVG--><g id="link_DC_SVG"><path d="M653.15,78.3059 C696.47,75.2059 757.33,69.4959 810,59.5659 C834.16,55.0159 855.3276,49.1379 874.7376,43.1379 " fill="none" id="DC-to-SVG-1" style="stroke:#181818;stroke-width:1.0;"/><polygon fill="#181818" points="880.47,41.3659,870.6901,40.2023,875.693,42.8426,873.0528,47.8455,880.47,41.3659" style="stroke:#181818;stroke-width:1.0;"/><text fill="#000000" font-family="sans-serif" font-size="13" lengthAdjust="spacing" textLength="121" x="686" y="55.6328">Write updated SVG</text></g><!--link DC to SE--><g id="link_DC_SE"><path d="M653.4,95.5959 C663.24,97.7559 673.39,99.8459 683,101.5659 C735.42,110.9559 789.2779,117.8525 833.9879,122.9025 " fill="none" id="DC-to-SE" style="stroke:#181818;stroke-width:1.0;"/><polygon fill="#181818" points="839.95,123.5759,831.4558,118.5911,834.9816,123.0147,830.5579,126.5405,839.95,123.5759" style="stroke:#181818;stroke-width:1.0;"/><text fill="#000000" font-family="sans-serif" font-size="13" lengthAdjust="spacing" textLength="113" x="690" y="97.6328">Resolve :ref:/:doc:</text></g><!--link SE to DC--><g id="link_SE_DC"><path d="M839.59,147.0359 C794.21,155.0259 733.76,159.8059 683,143.5659 C659.68,136.1059 641.8247,123.7733 625.5947,109.7833 " fill="none" id="SE-to-DC" style="stroke:#181818;stroke-width:1.0;"/><polygon fill="#181818" points="621.05,105.8659,625.2554,114.7718,624.8372,109.1304,630.4786,108.7123,621.05,105.8659" style="stroke:#181818;stroke-width:1.0;"/><text fill="#000000" font-family="sans-serif" font-size="13" lengthAdjust="spacing" textLength="125" x="684" y="139.6328">Return resolved URI</text></g><!--SRC=[LOz1JyCm38Nl-HLMxnFt73ZGbe444YhREAAGkAsbpfxSj89_JvgEZTqiVtxl-GtOHeW2IbqV8P2YZoHid8-Yi1zHpPTC79p-GF5-wec_uM6Y8HJWHbWNnWj7bG6AYbodxbWAS_B99rLfa2F5HNxOmYCDk4eFsojOVMkUIOMFQRsUrCOi7y1cSt-E0hkcGoL-DEVTWgioeLrgqQLxnL666JyLMrHaZwD9FBka5omqw48Us_JDbTKPPIdOfBLtDeYt9e5BH8DnKlvB2B1ldc-zFvGYmdGABc8EkU3R0YqnZJs6_oLoMGjlAZC5XAVTwqik-Wi0]--></g></svg>